<?xml version="1.0" encoding="UTF-8"?>
<svg id="Layer_2" data-name="Layer 2" xmlns="http://www.w3.org/2000/svg" xmlns:xlink="http://www.w3.org/1999/xlink" viewBox="0 0 4170.8 4170.8">
  <defs>
    <style>
      .cls-1 {
        stroke: #989898;
        stroke-width: 2.34px;
      }

      .cls-1, .cls-2, .cls-3, .cls-4 {
        stroke-linecap: round;
        stroke-linejoin: round;
      }

      .cls-1, .cls-2, .cls-3, .cls-4, .cls-5 {
        fill: none;
      }

      .cls-2 {
        stroke-width: 21.97px;
      }

      .cls-2, .cls-3, .cls-4 {
        stroke: #fff;
      }

      .cls-6 {
        fill: #5fe2eb;
      }

      .cls-6, .cls-7, .cls-8, .cls-9, .cls-10, .cls-11, .cls-12, .cls-13 {
        fill-rule: evenodd;
      }

      .cls-7 {
        fill: #fff;
      }

      .cls-14 {
        clip-path: url(#clippath-2);
      }

      .cls-3 {
        stroke-width: 34.69px;
      }

      .cls-15, .cls-12 {
        fill: #20b2bf;
      }

      .cls-16 {
        clip-path: url(#clippath-6);
      }

      .cls-8 {
        fill: #989898;
      }

      .cls-17 {
        clip-path: url(#clippath-1);
      }

      .cls-18 {
        clip-path: url(#clippath-4);
      }

      .cls-9 {
        fill: #a7d56e;
      }

      .cls-4 {
        stroke-width: 12.77px;
      }

      .cls-10 {
        fill: #5ce2eb;
      }

      .cls-19 {
        clip-path: url(#clippath);
      }

      .cls-5 {
        clip-rule: evenodd;
      }

      .cls-20 {
        clip-path: url(#clippath-3);
      }

      .cls-21 {
        clip-path: url(#clippath-5);
      }

      .cls-22 {
        fill: #376005;
      }

      .cls-11 {
        fill: #89b752;
      }

      .cls-13 {
        fill: #ebebeb;
      }
    </style>
    <clipPath id="clippath">
      <path class="cls-5" d="M2085.4,0c1150.96,0,2085.4,934.44,2085.4,2085.4s-934.44,2085.4-2085.4,2085.4S0,3236.36,0,2085.4,934.44,0,2085.4,0h0Z"/>
    </clipPath>
    <clipPath id="clippath-1">
      <path class="cls-5" d="M2085.4,697.84c767.07,0,1389.83,622.76,1389.83,1389.83s-622.76,1389.83-1389.83,1389.83-1389.83-622.76-1389.83-1389.83S1318.33,697.84,2085.4,697.84h0Z"/>
    </clipPath>
    <clipPath id="clippath-2">
      <polygon class="cls-5" points="3880.14 2708.21 3489.35 2708.21 3489.35 2915.41 3880.14 2915.41 3880.14 2708.21 3880.14 2708.21"/>
    </clipPath>
    <clipPath id="clippath-3">
      <path class="cls-5" d="M3626.51,1347.86l-40.76-53.22c31.31-16.54,44.18,1.74,44.18,1.74,12.98-20.18,24.28-21.94,29.27-23.06,1.87-.42,2.16-.3,3.15-.35,1.15-.06,2.7-.08,3.99-.03,5.55,.19,11.03,2.22,15.9,4.71,11.28,5.77,19.52,16.04,19.36,17.48,34.09-23.94,39.83-2.6,39.83-2.6l-35.38,55.2c52.52,58.11,111.13,160.36,111.13,214.01,0,102.79-53.11,155.39-151.47,155.39s-154.6-49.16-154.6-151.95c0-53.6,62.89-159.2,115.42-217.33h0Z"/>
    </clipPath>
    <clipPath id="clippath-4">
      <path class="cls-5" d="M2777.87,3565.6c52.75-92.73,158.27-92.73,211.02-46.37,52.76,46.37,52.76,139.1,0,231.83-36.93,69.55-131.89,139.1-211.02,185.46-79.13-46.37-174.09-115.92-211.02-185.46-52.76-92.73-52.76-185.46,0-231.83,52.76-46.37,158.27-46.37,211.02,46.37h0Z"/>
    </clipPath>
    <clipPath id="clippath-5">
      <path class="cls-5" d="M2804.53,656.39c.75-4.06-.15-8.25-2.5-11.65-2.35-3.4-5.96-5.71-10.03-6.44-9.49-1.69-21.61-3.84-31.06-5.52-8.38-1.49-16.4,4.06-17.95,12.43-2.02,10.87-4.38,23.61-4.38,23.61l61.57,10.94s2.33-12.56,4.34-23.37h0Z"/>
    </clipPath>
    <clipPath id="clippath-6">
      <path class="cls-5" d="M2837.62,693.39c1.33-7.18-.26-14.59-4.41-20.6-4.16-6-10.54-10.1-17.73-11.37-25.34-4.5-62.9-11.18-88.1-15.66-14.82-2.63-28.98,7.18-31.73,21.97-2.54,13.71-5.64,30.37-8.19,44.13-1.33,7.18,.26,14.59,4.41,20.6,4.16,6,10.54,10.1,17.73,11.38,25.34,4.5,62.9,11.18,88.1,15.66,14.81,2.63,28.98-7.18,31.73-21.97,2.54-13.71,5.64-30.37,8.19-44.13h0Z"/>
    </clipPath>
  </defs>
  <g id="Layer_1-2" data-name="Layer 1">
    <g>
      <path class="cls-12" d="M2085.4,0c1150.96,0,2085.4,934.44,2085.4,2085.4s-934.44,2085.4-2085.4,2085.4S0,3236.36,0,2085.4,934.44,0,2085.4,0h0Z"/>
      <g class="cls-19">
        <path class="cls-2" d="M2085.4-167.76V4170.8M3622.75,550.32c-6.96,6.96-3065.69,3065.69-3067.82,3067.83m3699.76-1533.91H-83.88m3703.19,1533.91c-6.96-6.96-3065.69-3065.7-3067.83-3067.83"/>
      </g>
      <path class="cls-13" d="M2085.4,697.84c767.07,0,1389.83,622.76,1389.83,1389.83s-622.76,1389.83-1389.83,1389.83-1389.83-622.76-1389.83-1389.83S1318.33,697.84,2085.4,697.84h0Z"/>
      <g class="cls-17">
        <path class="cls-11" d="M2091.92,599.68s-14.02,1474.47,2.14,1469.78c16.16-4.69,1072.84-1050.29,1072.84-1050.29l-1074.98-419.49h0Z"/>
        <path class="cls-9" d="M3162.23,1020.87s-1075.36,1055.53-1060.54,1063.57c14.81,8.04,1517.55-.32,1517.55-.32l-457-1063.25h0Z"/>
        <path class="cls-11" d="M3601.54,2086.76s-1510.82-14.02-1506.02,2.14c4.8,16.16,1076.18,1072.84,1076.18,1072.84l429.84-1074.98h0Z"/>
        <path class="cls-9" d="M2081,3599.43s-8.15-1508.42,7.99-1503.56c16.14,4.86,1068.65,1078.61,1068.65,1078.61l-1076.64,424.96h0Z"/>
        <path class="cls-11" d="M1021.75,3162.55s1056.67-1076.5,1064.71-1061.68c8.04,14.82-1.14,1518.36-1.14,1518.36l-1063.57-456.68h0Z"/>
        <path class="cls-9" d="M582.91,2095.35s1508.38-14.02,1503.58,2.14c-4.8,16.16-1074.44,1072.84-1074.44,1072.84l-429.14-1074.98h0Z"/>
        <path class="cls-11" d="M1012.99,1020.05s1076.5,1056.67,1061.68,1064.71c-14.82,8.04-1518.36-1.14-1518.36-1.14L1012.99,1020.05h0Z"/>
        <path class="cls-9" d="M2085.76,568.31s14.02,1508.38-2.14,1503.58c-16.16-4.8-1072.84-1074.44-1072.84-1074.44l1074.98-429.14h0Z"/>
        <path class="cls-2" d="M2085.4-167.76V4170.8m988.62-3063.46c-10.42-1.5-1971.12,1957.19-1965.52,1965.52m1960.67,0c1.5-10.42-1957.19-1971.12-1965.52-1965.52m2375.02,983.77c-6.3-8.43-2777.74-9.85-2779.67,0"/>
      </g>
      <path class="cls-22" d="M2364.48,1166.14c-2.83,4.24-6.44,7.67-10.83,10.3-4.39,2.62-9.92,3.94-16.58,3.94-6.06,0-11.53-1.41-16.43-4.24-4.9-2.83-9.03-6.74-12.42-11.73-3.38-5-6.01-10.93-7.87-17.79-1.87-6.86-2.8-14.38-2.8-22.56s.93-15.72,2.8-22.64c1.87-6.91,4.52-12.87,7.95-17.87,3.43-5,7.6-8.88,12.49-11.66,4.9-2.78,10.32-4.16,16.28-4.16s11.56,1.13,16.2,3.41c4.64,2.27,8.43,5.53,11.36,9.77l-10.45,12.72c-4.14-5.96-9.49-8.93-16.05-8.93-3.63,0-6.81,1.04-9.54,3.1-2.73,2.07-5,4.87-6.81,8.4-1.82,3.53-3.18,7.7-4.09,12.49-.91,4.79-1.36,9.92-1.36,15.37s.45,10.42,1.36,15.22c.91,4.8,2.27,8.96,4.09,12.49,1.82,3.53,4.11,6.34,6.89,8.4,2.78,2.07,6.03,3.1,9.77,3.1,3.53,0,6.59-.91,9.16-2.73,2.57-1.82,4.72-4.04,6.43-6.66l10.45,12.27h0Z"/>
      <path class="cls-22" d="M2405.36,1141.46h-5c-2.12,0-4.16,.18-6.13,.53-1.97,.35-3.71,1.03-5.22,2.04-1.51,1.01-2.73,2.4-3.63,4.16-.91,1.77-1.36,4.01-1.36,6.74,0,4.04,.88,7.02,2.65,8.93,1.77,1.92,3.81,2.88,6.13,2.88s4.29-.66,5.91-1.97c1.62-1.31,2.9-2.98,3.86-5,.96-2.02,1.67-4.26,2.12-6.74,.45-2.47,.68-4.87,.68-7.19v-4.39h0Zm.61,24.68c-1.11,4.24-3.13,7.54-6.06,9.92-2.93,2.37-6.81,3.56-11.66,3.56-2.22,0-4.49-.4-6.81-1.21-2.32-.81-4.42-2.15-6.28-4.01-1.87-1.87-3.41-4.29-4.62-7.27-1.21-2.98-1.82-6.59-1.82-10.83,0-5.45,.98-9.92,2.95-13.4,1.97-3.48,4.49-6.23,7.57-8.25,3.08-2.02,6.51-3.41,10.3-4.16,3.79-.76,7.49-1.14,11.13-1.14h4.24v-2.42c0-5.15-1.03-8.86-3.1-11.13-2.07-2.27-4.82-3.41-8.25-3.41-2.93,0-5.58,.68-7.95,2.04-2.37,1.36-4.42,3.15-6.13,5.37l-8.18-10.75c2.83-3.53,6.41-6.28,10.75-8.25,4.34-1.97,8.63-2.95,12.87-2.95,4.74,0,8.76,.76,12.04,2.27,3.28,1.51,5.93,3.71,7.95,6.59,2.02,2.88,3.46,6.44,4.32,10.67,.86,4.24,1.29,9.03,1.29,14.39v45.88h-14.23v-11.51h-.3Z"/>
      <path class="cls-22" d="M2457.3,1115.27c1.31-5.75,3.38-10.09,6.21-13.02,2.83-2.93,6.16-4.39,9.99-4.39h1.29c.35,0,.78,.1,1.29,.3l-.91,17.56c-1.11-.3-2.32-.45-3.63-.45-2.22,0-4.19,.68-5.91,2.04-1.72,1.36-3.18,3.15-4.39,5.38-1.21,2.22-2.12,4.74-2.72,7.57-.61,2.83-.91,5.7-.91,8.63v38.76h-17.41v-77.22h16.81v14.84h.3Z"/>
      <path class="cls-22" d="M2497.73,1143.43c0,3.03,.3,5.88,.91,8.55,.6,2.68,1.49,5,2.65,6.97,1.16,1.97,2.57,3.53,4.24,4.69,1.67,1.16,3.61,1.74,5.83,1.74,3.13,0,5.63-1.01,7.5-3.03,1.87-2.02,3.36-4.34,4.47-6.96l12.57,7.27c-2.22,5.35-5.38,9.62-9.46,12.8-4.09,3.18-9.31,4.77-15.67,4.77-8.98,0-16.2-3.53-21.65-10.6-5.45-7.07-8.18-17.21-8.18-30.43,0-6.16,.71-11.79,2.12-16.88,1.41-5.1,3.43-9.46,6.06-13.1,2.62-3.63,5.73-6.44,9.31-8.4,3.58-1.97,7.6-2.95,12.04-2.95,4.95,0,9.16,1.01,12.64,3.03,3.48,2.02,6.31,4.77,8.48,8.25,2.17,3.48,3.76,7.6,4.77,12.34,1.01,4.74,1.51,9.89,1.51,15.44v6.51h-40.12Zm23.77-12.42c0-5.75-.91-10.42-2.72-14.01-1.82-3.58-4.64-5.37-8.48-5.37-2.22,0-4.11,.66-5.68,1.97-1.57,1.31-2.83,2.95-3.79,4.92-.96,1.97-1.69,4.09-2.19,6.36-.51,2.27-.76,4.32-.76,6.13h23.62Z"/>
      <path class="cls-22" d="M2565.56,1143.43c0,3.03,.3,5.88,.91,8.55,.61,2.68,1.49,5,2.65,6.97,1.16,1.97,2.57,3.53,4.24,4.69,1.67,1.16,3.61,1.74,5.83,1.74,3.13,0,5.63-1.01,7.49-3.03,1.87-2.02,3.36-4.34,4.47-6.96l12.57,7.27c-2.22,5.35-5.38,9.62-9.46,12.8-4.09,3.18-9.31,4.77-15.67,4.77-8.98,0-16.2-3.53-21.65-10.6-5.45-7.07-8.18-17.21-8.18-30.43,0-6.16,.71-11.79,2.12-16.88,1.41-5.1,3.43-9.46,6.06-13.1,2.62-3.63,5.73-6.44,9.31-8.4,3.58-1.97,7.6-2.95,12.04-2.95,4.95,0,9.16,1.01,12.64,3.03,3.48,2.02,6.31,4.77,8.48,8.25,2.17,3.48,3.76,7.6,4.77,12.34,1.01,4.74,1.51,9.89,1.51,15.44v6.51h-40.12Zm23.77-12.42c0-5.75-.91-10.42-2.73-14.01-1.82-3.58-4.64-5.37-8.48-5.37-2.22,0-4.11,.66-5.68,1.97-1.56,1.31-2.83,2.95-3.79,4.92-.96,1.97-1.69,4.09-2.2,6.36-.5,2.27-.76,4.32-.76,6.13h23.62Z"/>
      <path class="cls-22" d="M2638.54,1115.27c1.31-5.75,3.38-10.09,6.21-13.02,2.83-2.93,6.16-4.39,9.99-4.39h1.29c.35,0,.78,.1,1.29,.3l-.91,17.56c-1.11-.3-2.32-.45-3.63-.45-2.22,0-4.19,.68-5.91,2.04-1.72,1.36-3.18,3.15-4.39,5.38-1.21,2.22-2.12,4.74-2.72,7.57-.61,2.83-.91,5.7-.91,8.63v38.76h-17.41v-77.22h16.81v14.84h.3Z"/>
      <path class="cls-22" d="M1454.64,1091.19c-3.94-4.75-8.88-7.12-14.84-7.12-1.72,0-3.38,.28-5,.83-1.61,.55-3.08,1.44-4.39,2.65-1.31,1.21-2.35,2.78-3.1,4.69-.76,1.92-1.14,4.19-1.14,6.81,0,4.54,1.36,8.05,4.09,10.52,2.73,2.47,6.31,4.82,10.75,7.04,2.62,1.31,5.3,2.83,8.03,4.54,2.72,1.72,5.2,3.79,7.42,6.21,2.22,2.42,4.04,5.3,5.45,8.63,1.41,3.33,2.12,7.27,2.12,11.81,0,5.25-.83,9.89-2.5,13.93-1.67,4.04-3.89,7.44-6.66,10.22-2.78,2.78-6.03,4.87-9.77,6.28-3.73,1.41-7.67,2.12-11.81,2.12-5.96,0-11.46-1.16-16.51-3.48-5.05-2.32-9.08-5.25-12.11-8.78l9.84-13.32c2.32,2.83,5.12,5.05,8.4,6.66,3.28,1.62,6.64,2.42,10.07,2.42,3.84,0,7.02-1.31,9.54-3.94,2.52-2.62,3.78-6.31,3.78-11.05s-1.51-8.33-4.54-11.05c-3.03-2.72-6.86-5.25-11.51-7.57-2.93-1.41-5.68-2.98-8.25-4.69-2.57-1.72-4.84-3.76-6.81-6.13-1.97-2.37-3.53-5.15-4.69-8.33-1.16-3.18-1.74-6.99-1.74-11.43,0-5.55,.88-10.32,2.65-14.31,1.77-3.99,4.09-7.29,6.97-9.92,2.88-2.62,6.13-4.57,9.77-5.83,3.63-1.26,7.32-1.89,11.05-1.89,5.45,0,10.32,.88,14.61,2.65,4.29,1.77,7.9,4.37,10.83,7.8l-9.99,13.02h0Z"/>
      <path class="cls-22" d="M1538.98,1138.89c0,5.96-.53,11.43-1.59,16.43-1.06,5-2.65,9.36-4.77,13.1-2.12,3.74-4.74,6.64-7.87,8.71-3.13,2.07-6.71,3.1-10.75,3.1-4.44,0-8.1-1.24-10.98-3.71-2.88-2.47-4.87-5.48-5.98-9.01h-.3v46.48h-16.81v-113.56h16.5v10.9h.3c1.31-3.84,3.28-7.04,5.91-9.61,2.62-2.57,6.41-3.86,11.36-3.86,4.04,0,7.6,1.03,10.68,3.1,3.08,2.07,5.68,4.95,7.8,8.63,2.12,3.68,3.73,8.02,4.84,13.02,1.11,5,1.67,10.42,1.67,16.28h0Zm-17.11,0c0-3.63-.25-7.07-.76-10.3-.51-3.23-1.26-6.01-2.27-8.33-1.01-2.32-2.32-4.16-3.94-5.53-1.61-1.36-3.53-2.04-5.75-2.04s-3.99,.68-5.6,2.04c-1.61,1.36-2.95,3.2-4.01,5.53-1.06,2.32-1.87,5.1-2.42,8.33-.56,3.23-.83,6.66-.83,10.3s.28,7.07,.83,10.3c.55,3.23,1.36,6.03,2.42,8.4,1.06,2.37,2.4,4.24,4.01,5.6,1.61,1.36,3.48,2.04,5.6,2.04s4.14-.68,5.75-2.04c1.61-1.36,2.93-3.23,3.94-5.6,1.01-2.37,1.77-5.17,2.27-8.4,.51-3.23,.76-6.66,.76-10.3h0Z"/>
      <path class="cls-22" d="M1573.5,1078.02c0,3.03-.96,5.55-2.88,7.57-1.92,2.02-4.29,3.03-7.12,3.03s-5.33-1.01-7.19-3.03c-1.87-2.02-2.8-4.54-2.8-7.57s.93-5.45,2.8-7.57c1.87-2.12,4.27-3.18,7.19-3.18s5.32,1.06,7.19,3.18c1.87,2.12,2.8,4.64,2.8,7.57h0Zm-18.47,99.63v-77.22h16.96v77.22h-16.96Z"/>
      <path class="cls-22" d="M1609.99,1115.27c1.31-5.75,3.38-10.09,6.21-13.02,2.83-2.93,6.16-4.39,9.99-4.39h1.29c.35,0,.78,.1,1.29,.3l-.91,17.56c-1.11-.3-2.32-.45-3.63-.45-2.22,0-4.19,.68-5.9,2.04-1.72,1.36-3.18,3.15-4.39,5.38-1.21,2.22-2.12,4.74-2.73,7.57-.61,2.83-.91,5.7-.91,8.63v38.76h-17.41v-77.22h16.81v14.84h.3Z"/>
      <path class="cls-22" d="M1657.54,1078.02c0,3.03-.96,5.55-2.88,7.57-1.92,2.02-4.29,3.03-7.12,3.03s-5.32-1.01-7.19-3.03c-1.87-2.02-2.8-4.54-2.8-7.57s.93-5.45,2.8-7.57c1.87-2.12,4.26-3.18,7.19-3.18s5.32,1.06,7.19,3.18c1.87,2.12,2.8,4.64,2.8,7.57h0Zm-18.47,99.63v-77.22h16.96v77.22h-16.96Z"/>
      <path class="cls-22" d="M1693.88,1113.6v39.67c0,4.24,.63,7.32,1.89,9.24,1.26,1.92,3.21,2.88,5.83,2.88,.91,0,1.84-.1,2.8-.3,.96-.2,1.79-.51,2.5-.91l.3,13.33c-1.21,.61-2.83,1.11-4.84,1.51-2.02,.4-4.04,.61-6.06,.61-6.56,0-11.28-1.94-14.16-5.83-2.88-3.89-4.31-9.46-4.31-16.73v-43.46h-9.69v-13.17h9.69v-19.68h16.05v19.68h13.48v13.17h-13.48Z"/>
      <path class="cls-22" d="M1758.38,1177.65v-12.26h-.3c-1.41,4.14-3.76,7.65-7.04,10.52-3.28,2.88-7.34,4.32-12.19,4.32-4.24,0-7.65-.88-10.22-2.65-2.57-1.77-4.57-4.11-5.98-7.04-1.41-2.93-2.37-6.28-2.88-10.07-.5-3.79-.76-7.65-.76-11.58v-48.45h17.11v48.45c0,2.02,.1,3.99,.3,5.9,.2,1.92,.63,3.66,1.29,5.22,.66,1.56,1.62,2.83,2.88,3.79,1.26,.96,2.9,1.44,4.92,1.44,3.84,0,6.89-1.89,9.16-5.68,2.27-3.78,3.41-8.6,3.41-14.46v-44.67h17.11v77.22h-16.81Z"/>
      <path class="cls-22" d="M1827.42,1141.46h-5c-2.12,0-4.16,.18-6.13,.53-1.97,.35-3.71,1.03-5.22,2.04-1.51,1.01-2.72,2.4-3.63,4.16-.91,1.77-1.36,4.01-1.36,6.74,0,4.04,.88,7.02,2.65,8.93,1.77,1.92,3.81,2.88,6.13,2.88s4.29-.66,5.91-1.97c1.61-1.31,2.9-2.98,3.86-5,.96-2.02,1.67-4.26,2.12-6.74,.45-2.47,.68-4.87,.68-7.19v-4.39h0Zm.61,24.68c-1.11,4.24-3.13,7.54-6.06,9.92-2.93,2.37-6.81,3.56-11.66,3.56-2.22,0-4.49-.4-6.81-1.21-2.32-.81-4.42-2.15-6.28-4.01-1.87-1.87-3.41-4.29-4.62-7.27-1.21-2.98-1.82-6.59-1.82-10.83,0-5.45,.98-9.92,2.95-13.4,1.97-3.48,4.49-6.23,7.57-8.25,3.08-2.02,6.51-3.41,10.3-4.16,3.79-.76,7.5-1.14,11.13-1.14h4.24v-2.42c0-5.15-1.04-8.86-3.1-11.13-2.07-2.27-4.82-3.41-8.25-3.41-2.93,0-5.58,.68-7.95,2.04-2.37,1.36-4.42,3.15-6.13,5.37l-8.18-10.75c2.83-3.53,6.41-6.28,10.75-8.25,4.34-1.97,8.63-2.95,12.87-2.95,4.75,0,8.76,.76,12.04,2.27,3.28,1.51,5.93,3.71,7.95,6.59,2.02,2.88,3.46,6.44,4.32,10.67,.86,4.24,1.29,9.03,1.29,14.39v45.88h-14.23v-11.51h-.3Z"/>
      <polygon class="cls-22" points="1861.95 1177.65 1861.95 1063.18 1879.21 1063.18 1879.21 1177.65 1861.95 1177.65 1861.95 1177.65"/>
      <polygon class="cls-22" points="2856.19 1680.05 2856.19 1709.28 2883.74 1709.28 2883.74 1724.87 2856.34 1724.87 2856.34 1770.9 2838.02 1770.9 2838.02 1663.7 2886.01 1663.7 2886.01 1680.05 2856.19 1680.05 2856.19 1680.05"/>
      <path class="cls-22" d="M2916.3,1671.27c0,3.03-.96,5.55-2.88,7.57-1.92,2.02-4.29,3.03-7.12,3.03s-5.32-1.01-7.19-3.03c-1.87-2.02-2.8-4.54-2.8-7.57s.93-5.45,2.8-7.57c1.87-2.12,4.27-3.18,7.19-3.18s5.32,1.06,7.19,3.18c1.87,2.12,2.8,4.64,2.8,7.57h0Zm-18.47,99.63v-77.22h16.96v77.22h-16.96Z"/>
      <path class="cls-22" d="M2952.49,1693.68v12.26h.3c1.41-4.14,3.76-7.65,7.04-10.52,3.28-2.88,7.34-4.31,12.19-4.31,4.24,0,7.65,.88,10.22,2.65,2.57,1.77,4.57,4.11,5.98,7.04,1.41,2.93,2.37,6.28,2.88,10.07,.5,3.78,.76,7.65,.76,11.58v48.45h-17.11v-48.45c0-1.92-.1-3.86-.3-5.83-.2-1.97-.63-3.76-1.29-5.37-.66-1.62-1.61-2.9-2.88-3.86-1.26-.96-2.9-1.44-4.92-1.44-3.84,0-6.89,1.92-9.16,5.75-2.27,3.84-3.41,8.68-3.41,14.54v44.67h-17.11v-77.22h16.81Z"/>
      <path class="cls-22" d="M3043.18,1734.71h-5c-2.12,0-4.16,.18-6.13,.53-1.97,.35-3.71,1.03-5.22,2.04-1.51,1.01-2.72,2.4-3.63,4.16-.91,1.77-1.36,4.01-1.36,6.74,0,4.04,.88,7.02,2.65,8.93,1.77,1.92,3.81,2.88,6.13,2.88s4.29-.66,5.91-1.97c1.61-1.31,2.9-2.98,3.86-5,.96-2.02,1.67-4.26,2.12-6.74,.46-2.47,.68-4.87,.68-7.19v-4.39h0Zm.6,24.68c-1.11,4.24-3.13,7.55-6.06,9.92-2.93,2.37-6.81,3.56-11.66,3.56-2.22,0-4.49-.4-6.81-1.21-2.32-.81-4.42-2.15-6.28-4.01-1.87-1.87-3.41-4.29-4.62-7.27-1.21-2.98-1.82-6.59-1.82-10.83,0-5.45,.98-9.92,2.95-13.4,1.97-3.48,4.49-6.23,7.57-8.25,3.08-2.02,6.51-3.41,10.3-4.16,3.79-.76,7.5-1.14,11.13-1.14h4.24v-2.42c0-5.15-1.04-8.86-3.1-11.13-2.07-2.27-4.82-3.41-8.25-3.41-2.93,0-5.58,.68-7.95,2.04-2.37,1.36-4.42,3.15-6.13,5.38l-8.18-10.75c2.83-3.53,6.41-6.28,10.75-8.25,4.34-1.97,8.63-2.95,12.87-2.95,4.74,0,8.76,.76,12.04,2.27,3.28,1.51,5.93,3.71,7.95,6.59,2.02,2.88,3.46,6.44,4.31,10.67,.86,4.24,1.29,9.03,1.29,14.39v45.88h-14.23v-11.51h-.3Z"/>
      <path class="cls-22" d="M3094.81,1693.68v12.26h.3c1.41-4.14,3.76-7.65,7.04-10.52,3.28-2.88,7.34-4.31,12.19-4.31,4.24,0,7.65,.88,10.22,2.65,2.57,1.77,4.57,4.11,5.98,7.04,1.41,2.93,2.37,6.28,2.88,10.07,.5,3.78,.76,7.65,.76,11.58v48.45h-17.11v-48.45c0-1.92-.1-3.86-.3-5.83-.2-1.97-.63-3.76-1.29-5.37-.66-1.62-1.61-2.9-2.88-3.86-1.26-.96-2.9-1.44-4.92-1.44-3.84,0-6.89,1.92-9.16,5.75-2.27,3.84-3.41,8.68-3.41,14.54v44.67h-17.11v-77.22h16.81Z"/>
      <path class="cls-22" d="M3196.56,1766.36c-2.12,2.22-4.69,3.96-7.72,5.22-3.03,1.26-6.46,1.89-10.3,1.89-4.74,0-8.93-1.01-12.57-3.03-3.63-2.02-6.66-4.87-9.09-8.56-2.42-3.68-4.24-8.05-5.45-13.1-1.21-5.05-1.82-10.6-1.82-16.66s.63-11.61,1.89-16.66c1.26-5.05,3.13-9.39,5.6-13.02,2.47-3.63,5.5-6.44,9.08-8.4,3.58-1.97,7.75-2.95,12.49-2.95,4.14,0,7.7,.71,10.67,2.12,2.98,1.41,5.33,2.98,7.04,4.69l-7.72,12.87c-1.11-1.21-2.4-2.22-3.86-3.03-1.46-.81-3.26-1.21-5.38-1.21-4.24,0-7.44,2.35-9.62,7.04-2.17,4.69-3.26,10.88-3.26,18.55s1.11,13.83,3.33,18.47c2.22,4.64,5.6,6.96,10.15,6.96,2.12,0,3.94-.4,5.45-1.21,1.51-.81,2.83-1.92,3.94-3.33l7.12,13.32h0Z"/>
      <path class="cls-22" d="M3219.58,1736.68c0,3.03,.3,5.88,.91,8.55,.61,2.68,1.49,5,2.65,6.97,1.16,1.97,2.57,3.53,4.24,4.69,1.67,1.16,3.61,1.74,5.83,1.74,3.13,0,5.63-1.01,7.5-3.03,1.87-2.02,3.36-4.34,4.47-6.96l12.57,7.27c-2.22,5.35-5.38,9.62-9.46,12.8-4.09,3.18-9.31,4.77-15.67,4.77-8.98,0-16.2-3.53-21.65-10.6-5.45-7.07-8.18-17.21-8.18-30.43,0-6.16,.71-11.79,2.12-16.88,1.41-5.1,3.43-9.46,6.06-13.1,2.62-3.63,5.73-6.44,9.31-8.4,3.58-1.97,7.6-2.95,12.04-2.95,4.95,0,9.16,1.01,12.64,3.03,3.48,2.02,6.31,4.77,8.48,8.25,2.17,3.48,3.76,7.6,4.77,12.34,1.01,4.74,1.51,9.89,1.51,15.44v6.51h-40.12Zm23.77-12.42c0-5.75-.91-10.42-2.72-14.01-1.82-3.58-4.64-5.38-8.48-5.38-2.22,0-4.11,.66-5.68,1.97-1.57,1.31-2.83,2.95-3.79,4.92-.96,1.97-1.69,4.09-2.2,6.36-.5,2.27-.76,4.32-.76,6.13h23.62Z"/>
      <path class="cls-22" d="M960.7,1646.51c0,5.45-.83,10.22-2.5,14.31-1.67,4.09-3.86,7.5-6.59,10.22-2.72,2.73-5.85,4.74-9.39,6.06-3.53,1.31-7.17,1.97-10.9,1.97h-12.72v43h-17.87v-107.2h29.68c3.43,0,6.96,.5,10.6,1.51,3.63,1.01,6.89,2.75,9.77,5.22,2.88,2.47,5.25,5.73,7.12,9.77,1.87,4.04,2.8,9.08,2.8,15.14h0Zm-17.26,.15c0-5.75-1.36-9.94-4.09-12.57-2.73-2.62-6.21-3.94-10.45-3.94h-10.3v34.07h10.3c4.24,0,7.72-1.49,10.45-4.47,2.73-2.98,4.09-7.34,4.09-13.1h0Z"/>
      <path class="cls-22" d="M981.9,1687.85c0,3.03,.3,5.88,.91,8.55,.61,2.68,1.49,5,2.65,6.97,1.16,1.97,2.57,3.53,4.24,4.69,1.66,1.16,3.61,1.74,5.83,1.74,3.13,0,5.63-1.01,7.49-3.03,1.87-2.02,3.36-4.34,4.47-6.97l12.57,7.27c-2.22,5.35-5.38,9.61-9.46,12.79-4.09,3.18-9.31,4.77-15.67,4.77-8.98,0-16.2-3.53-21.65-10.6-5.45-7.07-8.18-17.21-8.18-30.43,0-6.16,.71-11.79,2.12-16.88,1.41-5.1,3.43-9.46,6.06-13.1,2.62-3.63,5.73-6.44,9.31-8.4,3.58-1.97,7.6-2.95,12.04-2.95,4.95,0,9.16,1.01,12.64,3.03,3.48,2.02,6.31,4.77,8.48,8.25,2.17,3.48,3.76,7.6,4.77,12.34,1.01,4.75,1.51,9.89,1.51,15.45v6.51h-40.12Zm23.77-12.41c0-5.75-.91-10.42-2.72-14.01-1.82-3.58-4.64-5.38-8.48-5.38-2.22,0-4.11,.66-5.68,1.97-1.56,1.31-2.83,2.95-3.79,4.92-.96,1.97-1.69,4.09-2.2,6.36-.5,2.27-.76,4.32-.76,6.13h23.62Z"/>
      <path class="cls-22" d="M1054.89,1659.68c1.31-5.75,3.38-10.09,6.21-13.02,2.83-2.93,6.16-4.39,9.99-4.39h1.29c.35,0,.78,.1,1.29,.3l-.91,17.56c-1.11-.3-2.32-.46-3.63-.46-2.22,0-4.19,.68-5.91,2.04-1.72,1.36-3.18,3.15-4.39,5.37-1.21,2.22-2.12,4.74-2.73,7.57-.61,2.83-.91,5.7-.91,8.63v38.76h-17.41v-77.22h16.81v14.84h.3Z"/>
      <path class="cls-22" d="M1116.81,1662.26c-1.41-1.92-3.18-3.48-5.3-4.69-2.12-1.21-4.54-1.82-7.27-1.82-2.52,0-4.64,.88-6.36,2.65-1.72,1.77-2.57,4.11-2.57,7.04s.91,5.22,2.73,6.59c1.82,1.36,4.69,2.75,8.63,4.16,2.22,.81,4.42,1.79,6.59,2.95,2.17,1.16,4.14,2.65,5.91,4.47,1.77,1.82,3.18,4.01,4.24,6.59,1.06,2.57,1.59,5.63,1.59,9.16,0,4.24-.68,7.95-2.04,11.13-1.36,3.18-3.2,5.83-5.53,7.95-2.32,2.12-4.97,3.69-7.95,4.69-2.98,1.01-6.08,1.51-9.31,1.51-4.85,0-9.36-.96-13.55-2.88-4.19-1.92-7.75-4.49-10.67-7.72l9.24-10.9c1.82,2.12,3.94,3.94,6.36,5.45,2.42,1.51,5.25,2.27,8.48,2.27,2.83,0,5.05-.96,6.66-2.88,1.61-1.92,2.42-4.44,2.42-7.57,0-3.63-1.19-6.26-3.56-7.87-2.37-1.61-5.53-3.13-9.46-4.54-2.02-.71-3.99-1.56-5.91-2.57-1.92-1.01-3.68-2.37-5.3-4.09s-2.9-3.81-3.86-6.28c-.96-2.47-1.44-5.48-1.44-9.01,0-3.73,.68-7.07,2.04-9.99,1.36-2.93,3.16-5.43,5.38-7.49,2.22-2.07,4.79-3.63,7.72-4.69,2.93-1.06,5.96-1.59,9.08-1.59,4.64,0,8.83,.83,12.57,2.5,3.73,1.67,6.91,3.81,9.54,6.44l-9.08,11.05h0Z"/>
      <path class="cls-22" d="M1194.94,1683.61c0,6.06-.68,11.61-2.04,16.65-1.36,5.05-3.33,9.36-5.9,12.95-2.57,3.58-5.68,6.39-9.31,8.4-3.63,2.02-7.77,3.03-12.42,3.03s-8.78-1.01-12.42-3.03c-3.63-2.02-6.74-4.82-9.31-8.4-2.57-3.58-4.54-7.9-5.91-12.95-1.36-5.05-2.05-10.6-2.05-16.65s.68-11.79,2.05-16.88c1.36-5.1,3.3-9.46,5.83-13.1,2.52-3.63,5.63-6.44,9.31-8.4,3.68-1.97,7.85-2.95,12.49-2.95s8.78,.98,12.42,2.95c3.63,1.97,6.74,4.77,9.31,8.4,2.57,3.63,4.54,8,5.9,13.1,1.36,5.1,2.04,10.72,2.04,16.88h0Zm-16.96-.15c0-3.73-.25-7.19-.76-10.37-.5-3.18-1.29-5.96-2.35-8.33-1.06-2.37-2.37-4.24-3.94-5.6-1.56-1.36-3.46-2.04-5.68-2.04s-4.11,.68-5.68,2.04c-1.57,1.36-2.85,3.23-3.86,5.6-1.01,2.37-1.77,5.15-2.27,8.33-.5,3.18-.76,6.64-.76,10.37s.25,7.07,.76,10.3c.5,3.23,1.26,6.01,2.27,8.33,1.01,2.32,2.3,4.16,3.86,5.53,1.56,1.36,3.46,2.04,5.68,2.04s4.14-.68,5.75-2.04c1.62-1.36,2.93-3.21,3.94-5.53,1.01-2.32,1.77-5.1,2.27-8.33,.5-3.23,.76-6.66,.76-10.3h0Z"/>
      <path class="cls-22" d="M1228.1,1644.84v12.26h.3c1.41-4.14,3.76-7.65,7.04-10.52,3.28-2.88,7.34-4.32,12.19-4.32,4.24,0,7.65,.88,10.22,2.65,2.58,1.77,4.57,4.11,5.98,7.04,1.41,2.93,2.37,6.28,2.88,10.07,.51,3.79,.76,7.65,.76,11.58v48.45h-17.11v-48.45c0-1.92-.1-3.86-.3-5.83-.2-1.97-.63-3.76-1.29-5.38-.66-1.61-1.61-2.9-2.88-3.86-1.26-.96-2.9-1.44-4.92-1.44-3.84,0-6.89,1.92-9.16,5.75s-3.41,8.68-3.41,14.54v44.67h-17.11v-77.22h16.81Z"/>
      <path class="cls-22" d="M1318.8,1685.88h-5c-2.12,0-4.16,.18-6.13,.53-1.97,.35-3.71,1.04-5.22,2.04-1.51,1.01-2.73,2.4-3.63,4.16-.91,1.77-1.36,4.01-1.36,6.74,0,4.04,.88,7.02,2.65,8.93,1.77,1.92,3.81,2.88,6.13,2.88s4.29-.66,5.91-1.97c1.62-1.31,2.9-2.98,3.86-5,.96-2.02,1.67-4.27,2.12-6.74,.45-2.47,.68-4.87,.68-7.19v-4.39h0Zm.6,24.68c-1.11,4.24-3.13,7.54-6.06,9.92-2.93,2.37-6.81,3.56-11.66,3.56-2.22,0-4.49-.4-6.81-1.21-2.32-.81-4.42-2.15-6.28-4.01-1.87-1.87-3.41-4.29-4.62-7.27-1.21-2.98-1.82-6.59-1.82-10.83,0-5.45,.98-9.92,2.95-13.4,1.97-3.48,4.49-6.23,7.57-8.25,3.08-2.02,6.51-3.41,10.3-4.16,3.78-.76,7.49-1.14,11.13-1.14h4.24v-2.42c0-5.15-1.03-8.86-3.1-11.13-2.07-2.27-4.82-3.41-8.25-3.41-2.93,0-5.58,.68-7.95,2.04-2.37,1.36-4.42,3.15-6.13,5.37l-8.18-10.75c2.83-3.53,6.41-6.28,10.75-8.25,4.34-1.97,8.63-2.95,12.87-2.95,4.74,0,8.76,.76,12.04,2.27,3.28,1.51,5.93,3.71,7.95,6.59,2.02,2.88,3.46,6.43,4.32,10.67,.86,4.24,1.29,9.03,1.29,14.39v45.88h-14.23v-11.51h-.3Z"/>
      <polygon class="cls-22" points="1353.32 1722.07 1353.32 1607.6 1370.58 1607.6 1370.58 1722.07 1353.32 1722.07 1353.32 1722.07"/>
      <path class="cls-22" d="M969.64,1820.03c0,16.96-3.56,30.11-10.67,39.44-7.12,9.34-17.59,14.01-31.42,14.01h-26.8v-107.2h26.95c13.73,0,24.15,4.72,31.27,14.16,7.12,9.44,10.67,22.64,10.67,39.6h0Zm-18.17,0c0-6.36-.58-11.91-1.74-16.65-1.16-4.75-2.8-8.68-4.92-11.81-2.12-3.13-4.64-5.48-7.57-7.04-2.93-1.56-6.11-2.35-9.54-2.35h-8.63v75.4h8.63c3.43,0,6.61-.78,9.54-2.35,2.93-1.56,5.45-3.91,7.57-7.04,2.12-3.13,3.76-7.04,4.92-11.73,1.16-4.69,1.74-10.17,1.74-16.43h0Z"/>
      <path class="cls-22" d="M998.56,1839.26c0,3.03,.3,5.88,.91,8.55,.61,2.67,1.49,5,2.65,6.96,1.16,1.97,2.57,3.53,4.24,4.69,1.67,1.16,3.61,1.74,5.83,1.74,3.13,0,5.63-1.01,7.49-3.03,1.87-2.02,3.36-4.34,4.47-6.97l12.57,7.27c-2.22,5.35-5.38,9.61-9.46,12.79-4.09,3.18-9.31,4.77-15.67,4.77-8.98,0-16.2-3.53-21.65-10.6-5.45-7.07-8.18-17.21-8.18-30.43,0-6.16,.71-11.78,2.12-16.88,1.41-5.1,3.43-9.46,6.06-13.1,2.62-3.63,5.73-6.44,9.31-8.4,3.58-1.97,7.6-2.95,12.04-2.95,4.95,0,9.16,1.01,12.64,3.03,3.48,2.02,6.31,4.77,8.48,8.25,2.17,3.48,3.76,7.6,4.77,12.34,1.01,4.74,1.51,9.89,1.51,15.44v6.51h-40.12Zm23.77-12.42c0-5.75-.91-10.42-2.73-14.01-1.82-3.58-4.64-5.38-8.48-5.38-2.22,0-4.11,.66-5.68,1.97-1.56,1.31-2.83,2.95-3.79,4.92s-1.69,4.09-2.2,6.36c-.5,2.27-.76,4.32-.76,6.13h23.62Z"/>
      <polygon class="cls-22" points="1086.23 1873.48 1065.79 1873.48 1045.35 1796.26 1063.36 1796.26 1076.39 1855.46 1076.69 1855.46 1089.26 1796.26 1106.67 1796.26 1086.23 1873.48 1086.23 1873.48"/>
      <path class="cls-22" d="M1130.74,1839.26c0,3.03,.3,5.88,.91,8.55,.61,2.67,1.49,5,2.65,6.96,1.16,1.97,2.57,3.53,4.24,4.69,1.67,1.16,3.61,1.74,5.83,1.74,3.13,0,5.63-1.01,7.49-3.03,1.87-2.02,3.36-4.34,4.47-6.97l12.57,7.27c-2.22,5.35-5.38,9.61-9.46,12.79-4.09,3.18-9.31,4.77-15.67,4.77-8.98,0-16.2-3.53-21.65-10.6-5.45-7.07-8.18-17.21-8.18-30.43,0-6.16,.71-11.78,2.12-16.88,1.41-5.1,3.43-9.46,6.06-13.1,2.62-3.63,5.73-6.44,9.31-8.4,3.58-1.97,7.6-2.95,12.04-2.95,4.95,0,9.16,1.01,12.64,3.03,3.48,2.02,6.31,4.77,8.48,8.25,2.17,3.48,3.76,7.6,4.77,12.34,1.01,4.74,1.51,9.89,1.51,15.44v6.51h-40.12Zm23.77-12.42c0-5.75-.91-10.42-2.72-14.01-1.82-3.58-4.64-5.38-8.48-5.38-2.22,0-4.11,.66-5.68,1.97-1.57,1.31-2.83,2.95-3.79,4.92-.96,1.97-1.69,4.09-2.2,6.36-.5,2.27-.76,4.32-.76,6.13h23.62Z"/>
      <polygon class="cls-22" points="1186.31 1873.48 1186.31 1759.01 1203.57 1759.01 1203.57 1873.48 1186.31 1873.48 1186.31 1873.48"/>
      <path class="cls-22" d="M1278.98,1835.02c0,6.06-.68,11.61-2.04,16.66-1.36,5.05-3.33,9.36-5.9,12.95-2.57,3.58-5.68,6.38-9.31,8.4-3.63,2.02-7.77,3.03-12.42,3.03s-8.78-1.01-12.42-3.03c-3.63-2.02-6.74-4.82-9.31-8.4-2.57-3.58-4.54-7.9-5.91-12.95-1.36-5.05-2.04-10.6-2.04-16.66s.68-11.78,2.04-16.88c1.36-5.1,3.31-9.46,5.83-13.1,2.52-3.63,5.63-6.44,9.31-8.4,3.68-1.97,7.85-2.95,12.49-2.95s8.78,.98,12.42,2.95c3.63,1.97,6.74,4.77,9.31,8.4,2.57,3.63,4.54,8,5.9,13.1,1.36,5.1,2.04,10.73,2.04,16.88h0Zm-16.96-.15c0-3.73-.25-7.19-.76-10.37-.5-3.18-1.29-5.96-2.35-8.33-1.06-2.37-2.37-4.24-3.94-5.6-1.57-1.36-3.46-2.04-5.68-2.04s-4.11,.68-5.68,2.04c-1.57,1.36-2.85,3.23-3.86,5.6-1.01,2.37-1.77,5.15-2.27,8.33-.5,3.18-.76,6.64-.76,10.37s.25,7.07,.76,10.3c.51,3.23,1.26,6.01,2.27,8.33,1.01,2.32,2.3,4.16,3.86,5.53,1.56,1.36,3.46,2.04,5.68,2.04s4.14-.68,5.75-2.04c1.61-1.36,2.93-3.2,3.94-5.53,1.01-2.32,1.77-5.1,2.27-8.33,.51-3.23,.76-6.66,.76-10.3h0Z"/>
      <path class="cls-22" d="M1354.08,1834.72c0,5.96-.53,11.43-1.59,16.43-1.06,5-2.65,9.36-4.77,13.1-2.12,3.73-4.74,6.64-7.87,8.71-3.13,2.07-6.71,3.1-10.75,3.1-4.44,0-8.1-1.24-10.98-3.71-2.88-2.47-4.87-5.48-5.98-9.01h-.3v46.48h-16.81v-113.56h16.5v10.9h.3c1.31-3.84,3.28-7.04,5.91-9.61,2.62-2.57,6.41-3.86,11.36-3.86,4.04,0,7.6,1.03,10.68,3.1,3.08,2.07,5.68,4.95,7.8,8.63,2.12,3.68,3.73,8.03,4.85,13.02,1.11,5,1.66,10.42,1.66,16.28h0Zm-17.11,0c0-3.63-.25-7.07-.76-10.3-.5-3.23-1.26-6.01-2.27-8.33-1.01-2.32-2.32-4.16-3.94-5.53-1.62-1.36-3.53-2.04-5.75-2.04s-3.99,.68-5.6,2.04c-1.61,1.36-2.95,3.21-4.01,5.53-1.06,2.32-1.87,5.1-2.42,8.33-.56,3.23-.83,6.66-.83,10.3s.28,7.07,.83,10.3c.55,3.23,1.36,6.03,2.42,8.4,1.06,2.37,2.4,4.24,4.01,5.6,1.62,1.36,3.48,2.04,5.6,2.04s4.14-.68,5.75-2.04c1.61-1.36,2.93-3.23,3.94-5.6,1.01-2.37,1.77-5.17,2.27-8.4,.5-3.23,.76-6.66,.76-10.3h0Z"/>
      <path class="cls-22" d="M1387.54,1808.52c1.11-4.14,3.25-7.65,6.44-10.52,3.18-2.88,7.29-4.32,12.34-4.32,2.73,0,5.1,.4,7.12,1.21,2.02,.81,3.73,1.89,5.15,3.26,1.41,1.36,2.6,2.95,3.56,4.77,.96,1.82,1.69,3.69,2.19,5.6h.3c.61-1.82,1.49-3.61,2.65-5.38,1.16-1.77,2.57-3.36,4.24-4.77,1.66-1.41,3.61-2.55,5.83-3.41,2.22-.86,4.74-1.29,7.57-1.29,4.24,0,7.65,.88,10.22,2.65,2.57,1.77,4.57,4.11,5.98,7.04,1.41,2.93,2.37,6.28,2.88,10.07,.51,3.79,.76,7.65,.76,11.58v48.45h-17.11v-48.45c0-1.92-.1-3.86-.3-5.83-.2-1.97-.63-3.76-1.29-5.38-.66-1.61-1.61-2.9-2.88-3.86-1.26-.96-2.9-1.44-4.92-1.44-3.84,0-6.89,1.92-9.16,5.75-2.27,3.84-3.41,8.68-3.41,14.54v44.67h-16.81v-48.45c0-1.92-.1-3.86-.3-5.83-.2-1.97-.63-3.76-1.29-5.38-.66-1.61-1.59-2.9-2.8-3.86-1.21-.96-2.83-1.44-4.84-1.44-3.84,0-6.84,1.92-9.01,5.75-2.17,3.84-3.26,8.63-3.26,14.38v44.82h-16.96v-77.22h16.81v12.26h.3Z"/>
      <path class="cls-22" d="M1497.01,1839.26c0,3.03,.3,5.88,.91,8.55,.6,2.67,1.49,5,2.65,6.96,1.16,1.97,2.57,3.53,4.24,4.69,1.67,1.16,3.61,1.74,5.83,1.74,3.13,0,5.63-1.01,7.5-3.03,1.87-2.02,3.36-4.34,4.47-6.97l12.57,7.27c-2.22,5.35-5.38,9.61-9.46,12.79-4.09,3.18-9.31,4.77-15.67,4.77-8.98,0-16.2-3.53-21.65-10.6-5.45-7.07-8.18-17.21-8.18-30.43,0-6.16,.71-11.78,2.12-16.88,1.41-5.1,3.43-9.46,6.06-13.1,2.62-3.63,5.73-6.44,9.31-8.4,3.58-1.97,7.6-2.95,12.04-2.95,4.95,0,9.16,1.01,12.64,3.03,3.48,2.02,6.31,4.77,8.48,8.25,2.17,3.48,3.76,7.6,4.77,12.34,1.01,4.74,1.51,9.89,1.51,15.44v6.51h-40.13Zm23.77-12.42c0-5.75-.91-10.42-2.72-14.01-1.82-3.58-4.64-5.38-8.48-5.38-2.22,0-4.11,.66-5.68,1.97-1.57,1.31-2.83,2.95-3.79,4.92-.96,1.97-1.69,4.09-2.2,6.36-.51,2.27-.76,4.32-.76,6.13h23.62Z"/>
      <path class="cls-22" d="M1569.69,1796.26v12.26h.3c1.41-4.14,3.76-7.65,7.04-10.52,3.28-2.88,7.34-4.32,12.19-4.32,4.24,0,7.65,.88,10.22,2.65,2.57,1.77,4.57,4.11,5.98,7.04,1.41,2.93,2.37,6.28,2.88,10.07,.51,3.79,.76,7.65,.76,11.58v48.45h-17.11v-48.45c0-1.92-.1-3.86-.3-5.83-.2-1.97-.63-3.76-1.29-5.38-.66-1.61-1.62-2.9-2.88-3.86-1.26-.96-2.9-1.44-4.92-1.44-3.83,0-6.89,1.92-9.16,5.75-2.27,3.84-3.41,8.68-3.41,14.54v44.67h-17.11v-77.22h16.81Z"/>
      <path class="cls-22" d="M1646.31,1809.43v39.67c0,4.24,.63,7.32,1.89,9.24,1.26,1.92,3.2,2.88,5.83,2.88,.91,0,1.84-.1,2.8-.3,.96-.2,1.79-.5,2.5-.91l.3,13.32c-1.21,.61-2.83,1.11-4.84,1.51-2.02,.4-4.04,.61-6.06,.61-6.56,0-11.28-1.94-14.16-5.83-2.88-3.89-4.32-9.46-4.32-16.73v-43.46h-9.69v-13.17h9.69v-19.68h16.05v19.68h13.48v13.17h-13.48Z"/>
      <polygon class="cls-22" points="2827.22 2453.37 2827.22 2482.59 2854.78 2482.59 2854.78 2498.19 2827.37 2498.19 2827.37 2544.22 2809.05 2544.22 2809.05 2437.02 2857.05 2437.02 2857.05 2453.37 2827.22 2453.37 2827.22 2453.37"/>
      <path class="cls-22" d="M2899.29,2508.03h-5c-2.12,0-4.16,.18-6.13,.53-1.97,.35-3.71,1.03-5.22,2.04-1.51,1.01-2.73,2.4-3.63,4.16-.91,1.77-1.36,4.01-1.36,6.74,0,4.04,.88,7.02,2.65,8.93,1.77,1.92,3.81,2.88,6.13,2.88s4.29-.66,5.91-1.97c1.62-1.31,2.9-2.98,3.86-5,.96-2.02,1.67-4.26,2.12-6.74,.45-2.47,.68-4.87,.68-7.19v-4.39h0Zm.6,24.68c-1.11,4.24-3.13,7.55-6.06,9.92-2.93,2.37-6.81,3.56-11.66,3.56-2.22,0-4.49-.4-6.81-1.21-2.32-.81-4.42-2.15-6.28-4.01-1.87-1.87-3.41-4.29-4.62-7.27-1.21-2.98-1.82-6.59-1.82-10.83,0-5.45,.98-9.92,2.95-13.4,1.97-3.48,4.49-6.23,7.57-8.25,3.08-2.02,6.51-3.41,10.3-4.16,3.79-.76,7.5-1.14,11.13-1.14h4.24v-2.42c0-5.15-1.03-8.86-3.1-11.13-2.07-2.27-4.82-3.41-8.25-3.41-2.93,0-5.58,.68-7.95,2.04-2.37,1.36-4.42,3.16-6.13,5.37l-8.18-10.75c2.83-3.53,6.41-6.28,10.75-8.25,4.34-1.97,8.63-2.95,12.87-2.95,4.74,0,8.76,.76,12.04,2.27,3.28,1.51,5.93,3.71,7.95,6.59,2.02,2.88,3.46,6.43,4.31,10.67,.86,4.24,1.29,9.03,1.29,14.38v45.88h-14.23v-11.51h-.3Z"/>
      <path class="cls-22" d="M2951.23,2479.26c1.11-4.14,3.25-7.65,6.44-10.52,3.18-2.88,7.29-4.32,12.34-4.32,2.73,0,5.1,.4,7.12,1.21,2.02,.81,3.74,1.89,5.15,3.26,1.41,1.36,2.6,2.95,3.56,4.77,.96,1.82,1.69,3.68,2.2,5.6h.3c.61-1.82,1.49-3.61,2.65-5.38,1.16-1.77,2.57-3.36,4.24-4.77,1.67-1.41,3.61-2.55,5.83-3.41,2.22-.86,4.74-1.29,7.57-1.29,4.24,0,7.65,.88,10.22,2.65,2.57,1.77,4.57,4.11,5.98,7.04,1.41,2.93,2.37,6.28,2.88,10.07,.51,3.79,.76,7.65,.76,11.58v48.45h-17.11v-48.45c0-1.92-.1-3.86-.3-5.83-.2-1.97-.63-3.76-1.29-5.38-.66-1.61-1.61-2.9-2.88-3.86-1.26-.96-2.9-1.44-4.92-1.44-3.83,0-6.89,1.92-9.16,5.75-2.27,3.83-3.41,8.68-3.41,14.54v44.67h-16.81v-48.45c0-1.92-.1-3.86-.3-5.83-.2-1.97-.63-3.76-1.29-5.38-.66-1.61-1.59-2.9-2.8-3.86-1.21-.96-2.83-1.44-4.85-1.44-3.84,0-6.84,1.92-9.01,5.75-2.17,3.83-3.26,8.63-3.26,14.38v44.82h-16.96v-77.22h16.81v12.27h.3Z"/>
      <path class="cls-22" d="M3066.91,2444.59c0,3.03-.96,5.55-2.88,7.57-1.92,2.02-4.29,3.03-7.12,3.03s-5.33-1.01-7.19-3.03c-1.87-2.02-2.8-4.54-2.8-7.57s.93-5.45,2.8-7.57c1.87-2.12,4.26-3.18,7.19-3.18s5.32,1.06,7.19,3.18c1.87,2.12,2.8,4.64,2.8,7.57h0Zm-18.47,99.63v-77.22h16.96v77.22h-16.96Z"/>
      <polygon class="cls-22" points="3085.98 2544.22 3085.98 2429.75 3103.25 2429.75 3103.25 2544.22 3085.98 2544.22 3085.98 2544.22"/>
      <path class="cls-22" d="M3153.52,2554.82c-1.01,3.83-2.2,7.34-3.56,10.52-1.36,3.18-3.05,5.91-5.07,8.18-2.02,2.27-4.42,4.01-7.19,5.22-2.78,1.21-6.03,1.82-9.77,1.82-2.02,0-3.96-.13-5.83-.38-1.87-.25-3.41-.58-4.62-.98l2.12-15.44c.81,.3,1.79,.58,2.95,.83,1.16,.25,2.3,.38,3.41,.38,2.73,0,4.79-.83,6.21-2.5,1.41-1.67,2.47-3.96,3.18-6.89l2.27-9.54-22.56-79.04h18.02l13.48,58.14h.45l12.27-58.14h17.41l-23.17,87.82h0Z"/>
      <polygon class="cls-22" points="973.22 2453.37 973.22 2482.59 1000.78 2482.59 1000.78 2498.19 973.37 2498.19 973.37 2544.22 955.05 2544.22 955.05 2437.02 1003.05 2437.02 1003.05 2453.37 973.22 2453.37 973.22 2453.37"/>
      <path class="cls-22" d="M1031.36,2481.84c1.31-5.75,3.38-10.09,6.21-13.02,2.83-2.93,6.16-4.39,9.99-4.39h1.29c.35,0,.78,.1,1.29,.3l-.91,17.56c-1.11-.3-2.32-.45-3.63-.45-2.22,0-4.19,.68-5.91,2.04-1.72,1.36-3.18,3.16-4.39,5.37-1.21,2.22-2.12,4.75-2.73,7.57-.6,2.83-.91,5.7-.91,8.63v38.76h-17.41v-77.22h16.81v14.84h.3Z"/>
      <path class="cls-22" d="M1078.91,2444.59c0,3.03-.96,5.55-2.88,7.57-1.92,2.02-4.29,3.03-7.12,3.03s-5.33-1.01-7.19-3.03c-1.87-2.02-2.8-4.54-2.8-7.57s.93-5.45,2.8-7.57c1.87-2.12,4.26-3.18,7.19-3.18s5.32,1.06,7.19,3.18c1.87,2.12,2.8,4.64,2.8,7.57h0Zm-18.47,99.63v-77.22h16.96v77.22h-16.96Z"/>
      <path class="cls-22" d="M1110.25,2510c0,3.03,.3,5.88,.91,8.55,.61,2.67,1.49,5,2.65,6.97,1.16,1.97,2.57,3.53,4.24,4.69,1.67,1.16,3.61,1.74,5.83,1.74,3.13,0,5.63-1.01,7.5-3.03,1.87-2.02,3.36-4.34,4.47-6.97l12.57,7.27c-2.22,5.35-5.38,9.61-9.46,12.79-4.09,3.18-9.31,4.77-15.67,4.77-8.98,0-16.2-3.53-21.65-10.6-5.45-7.07-8.18-17.21-8.18-30.43,0-6.16,.71-11.78,2.12-16.88,1.41-5.1,3.43-9.46,6.06-13.1,2.62-3.63,5.73-6.44,9.31-8.4,3.58-1.97,7.6-2.95,12.04-2.95,4.95,0,9.16,1.01,12.64,3.03,3.48,2.02,6.31,4.77,8.48,8.25,2.17,3.48,3.76,7.6,4.77,12.34,1.01,4.74,1.51,9.89,1.51,15.44v6.51h-40.12Zm23.77-12.42c0-5.75-.91-10.42-2.73-14.01-1.82-3.58-4.64-5.38-8.48-5.38-2.22,0-4.11,.66-5.68,1.97-1.56,1.31-2.83,2.95-3.78,4.92-.96,1.97-1.69,4.09-2.2,6.36-.5,2.27-.76,4.32-.76,6.13h23.62Z"/>
      <path class="cls-22" d="M1182.93,2467v12.27h.3c1.41-4.14,3.76-7.65,7.04-10.52,3.28-2.88,7.34-4.32,12.19-4.32,4.24,0,7.65,.88,10.22,2.65,2.57,1.77,4.57,4.11,5.98,7.04,1.41,2.93,2.37,6.28,2.88,10.07,.5,3.79,.76,7.65,.76,11.58v48.45h-17.11v-48.45c0-1.92-.1-3.86-.3-5.83-.2-1.97-.63-3.76-1.29-5.38-.66-1.61-1.61-2.9-2.88-3.86-1.26-.96-2.9-1.44-4.92-1.44-3.84,0-6.89,1.92-9.16,5.75-2.27,3.83-3.41,8.68-3.41,14.54v44.67h-17.11v-77.22h16.81Z"/>
      <path class="cls-22" d="M1280.29,2544.22v-11.05h-.3c-1.11,3.84-3,7.07-5.68,9.69-2.68,2.62-6.54,3.94-11.58,3.94-3.94,0-7.47-1.06-10.6-3.18-3.13-2.12-5.75-5.07-7.87-8.86-2.12-3.78-3.74-8.23-4.85-13.32-1.11-5.1-1.67-10.62-1.67-16.58s.53-11.25,1.59-16.2c1.06-4.95,2.65-9.21,4.77-12.79,2.12-3.58,4.72-6.39,7.8-8.4,3.08-2.02,6.69-3.03,10.83-3.03s7.82,1.19,10.75,3.56c2.93,2.37,4.95,5.32,6.06,8.86h.45v-47.09h16.81v114.47h-16.5Zm.3-38.61c0-3.73-.28-7.19-.83-10.37-.56-3.18-1.36-5.95-2.42-8.33-1.06-2.37-2.42-4.24-4.09-5.6-1.66-1.36-3.56-2.04-5.68-2.04s-4.14,.68-5.75,2.04c-1.62,1.36-2.93,3.23-3.94,5.6-1.01,2.37-1.77,5.15-2.27,8.33-.5,3.18-.76,6.64-.76,10.37s.25,7.04,.76,10.22c.5,3.18,1.26,5.96,2.27,8.33,1.01,2.37,2.32,4.24,3.94,5.6,1.62,1.36,3.53,2.04,5.75,2.04s4.14-.68,5.75-2.04c1.61-1.36,2.95-3.23,4.01-5.6,1.06-2.37,1.87-5.15,2.42-8.33,.55-3.18,.83-6.59,.83-10.22h0Z"/>
      <path class="cls-22" d="M1350.24,2484.41c-1.41-1.92-3.18-3.48-5.3-4.69-2.12-1.21-4.54-1.82-7.27-1.82-2.52,0-4.64,.88-6.36,2.65-1.72,1.77-2.57,4.11-2.57,7.04s.91,5.22,2.72,6.59c1.82,1.36,4.69,2.75,8.63,4.16,2.22,.81,4.42,1.79,6.59,2.95,2.17,1.16,4.14,2.65,5.91,4.47,1.77,1.82,3.18,4.01,4.24,6.59,1.06,2.57,1.59,5.63,1.59,9.16,0,4.24-.68,7.95-2.04,11.13-1.36,3.18-3.21,5.83-5.53,7.95-2.32,2.12-4.97,3.68-7.95,4.69-2.98,1.01-6.08,1.51-9.31,1.51-4.84,0-9.36-.96-13.55-2.88-4.19-1.92-7.75-4.49-10.67-7.72l9.24-10.9c1.82,2.12,3.94,3.94,6.36,5.45,2.42,1.51,5.25,2.27,8.48,2.27,2.83,0,5.05-.96,6.66-2.88,1.62-1.92,2.42-4.44,2.42-7.57,0-3.63-1.19-6.26-3.56-7.87-2.37-1.62-5.53-3.13-9.46-4.54-2.02-.71-3.99-1.56-5.91-2.57-1.92-1.01-3.69-2.37-5.3-4.09-1.61-1.72-2.9-3.81-3.86-6.28-.96-2.47-1.44-5.48-1.44-9.01,0-3.73,.68-7.07,2.04-9.99,1.36-2.93,3.15-5.43,5.38-7.49,2.22-2.07,4.79-3.63,7.72-4.69s5.96-1.59,9.08-1.59c4.64,0,8.83,.83,12.57,2.5,3.73,1.67,6.91,3.81,9.54,6.43l-9.08,11.05h0Z"/>
      <polygon class="cls-22" points="1407.53 2924.19 1407.53 2953.41 1435.09 2953.41 1435.09 2969 1407.68 2969 1407.68 3015.03 1389.36 3015.03 1389.36 2907.83 1437.36 2907.83 1437.36 2924.19 1407.53 2924.19 1407.53 2924.19"/>
      <path class="cls-22" d="M1487.02,3015.03v-12.27h-.3c-1.41,4.14-3.76,7.65-7.04,10.52-3.28,2.88-7.34,4.32-12.19,4.32-4.24,0-7.65-.88-10.22-2.65-2.58-1.77-4.57-4.11-5.98-7.04-1.41-2.93-2.37-6.28-2.88-10.07-.51-3.79-.76-7.65-.76-11.58v-48.45h17.11v48.45c0,2.02,.1,3.99,.3,5.91,.2,1.92,.63,3.66,1.29,5.22,.66,1.56,1.61,2.83,2.88,3.79,1.26,.96,2.9,1.44,4.92,1.44,3.84,0,6.89-1.89,9.16-5.68,2.27-3.79,3.41-8.6,3.41-14.46v-44.67h17.11v77.22h-16.81Z"/>
      <path class="cls-22" d="M1541.83,2937.81v12.26h.3c1.41-4.14,3.76-7.65,7.04-10.52,3.28-2.88,7.34-4.31,12.19-4.31,4.24,0,7.65,.88,10.22,2.65,2.57,1.77,4.57,4.11,5.98,7.04,1.41,2.93,2.37,6.28,2.88,10.07,.51,3.79,.76,7.65,.76,11.58v48.45h-17.11v-48.45c0-1.92-.1-3.86-.3-5.83-.2-1.97-.63-3.76-1.29-5.38-.66-1.61-1.61-2.9-2.88-3.86-1.26-.96-2.9-1.44-4.92-1.44-3.84,0-6.89,1.92-9.16,5.75-2.27,3.84-3.41,8.68-3.41,14.54v44.67h-17.11v-77.22h16.81Z"/>
      <path class="cls-22" d="M1684.92,3015.03l-7.72-11.2c-2.02,3.73-4.92,6.94-8.71,9.61-3.79,2.68-8.61,4.01-14.46,4.01-8.58,0-15.44-2.75-20.59-8.25-5.15-5.5-7.72-13.3-7.72-23.39,0-7.37,1.72-13.53,5.15-18.47,3.43-4.95,7.72-8.93,12.87-11.96-2.83-4.04-4.9-7.9-6.21-11.58-1.31-3.68-1.97-7.7-1.97-12.04s.66-7.87,1.97-11.21c1.31-3.33,3.1-6.16,5.38-8.48,2.27-2.32,5-4.11,8.18-5.38,3.18-1.26,6.59-1.89,10.22-1.89s6.76,.58,9.69,1.74c2.93,1.16,5.45,2.83,7.57,5,2.12,2.17,3.79,4.82,5,7.95,1.21,3.13,1.82,6.66,1.82,10.6,0,3.43-.56,6.56-1.67,9.39-1.11,2.83-2.57,5.4-4.39,7.72-1.82,2.32-3.94,4.44-6.36,6.36-2.42,1.92-4.95,3.68-7.57,5.3l12.26,17.72,8.18-19.84h17.87l-15.9,32.71,18.02,25.59h-20.9Zm-15.29-83.88c0-3.63-.71-6.61-2.12-8.93-1.41-2.32-3.48-3.48-6.21-3.48s-4.92,1.26-6.59,3.79c-1.67,2.52-2.5,5.6-2.5,9.24,0,3.13,.51,6.01,1.52,8.63,1.01,2.62,2.52,5.35,4.54,8.18,3.03-2.02,5.68-4.42,7.95-7.19,2.27-2.78,3.41-6.18,3.41-10.22h0Zm-17.87,36.04c-2.22,1.41-4.29,3.53-6.21,6.36-1.92,2.83-2.88,6.51-2.88,11.05,0,5.35,1.19,9.56,3.56,12.64,2.37,3.08,5.48,4.62,9.31,4.62,3.23,0,5.9-1.14,8.02-3.41,2.12-2.27,3.63-4.72,4.54-7.34l-16.35-23.92h0Z"/>
      <path class="cls-22" d="M1433.72,3166.45l-16.66-45.73h-10.15v45.73h-17.56v-107.2h30.59c4.44,0,8.53,.58,12.26,1.74,3.73,1.16,6.94,3,9.61,5.53,2.68,2.52,4.77,5.7,6.28,9.54,1.51,3.84,2.27,8.43,2.27,13.78,0,4.14-.53,7.8-1.59,10.98-1.06,3.18-2.4,5.88-4.01,8.1-1.62,2.22-3.41,4.01-5.38,5.37-1.97,1.36-3.91,2.3-5.83,2.8l19.23,49.36h-19.08Zm-1.21-75.71c0-3.23-.45-5.9-1.36-8.02-.91-2.12-2.09-3.79-3.56-5-1.46-1.21-3.1-2.07-4.92-2.57-1.82-.5-3.63-.76-5.45-.76h-10.3v33.01h10.3c4.44,0,8.1-1.39,10.98-4.16,2.88-2.78,4.31-6.94,4.31-12.49h0Z"/>
      <path class="cls-22" d="M1477.79,3132.23c0,3.03,.3,5.88,.91,8.55,.61,2.67,1.49,5,2.65,6.97,1.16,1.97,2.57,3.53,4.24,4.69,1.67,1.16,3.61,1.74,5.83,1.74,3.13,0,5.63-1.01,7.49-3.03,1.87-2.02,3.36-4.34,4.47-6.96l12.57,7.27c-2.22,5.35-5.38,9.61-9.46,12.8-4.09,3.18-9.31,4.77-15.67,4.77-8.98,0-16.2-3.53-21.65-10.6-5.45-7.07-8.18-17.21-8.18-30.43,0-6.16,.71-11.79,2.12-16.88,1.41-5.1,3.43-9.46,6.06-13.1,2.62-3.63,5.73-6.44,9.31-8.4,3.58-1.97,7.59-2.95,12.04-2.95,4.95,0,9.16,1.01,12.64,3.03,3.48,2.02,6.31,4.77,8.48,8.25,2.17,3.48,3.76,7.6,4.77,12.34,1.01,4.74,1.51,9.89,1.51,15.44v6.51h-40.12Zm23.77-12.42c0-5.75-.91-10.42-2.72-14.01-1.82-3.58-4.64-5.38-8.48-5.38-2.22,0-4.11,.66-5.68,1.97-1.57,1.31-2.83,2.95-3.79,4.92-.96,1.97-1.69,4.09-2.2,6.36-.51,2.27-.76,4.32-.76,6.13h23.62Z"/>
      <path class="cls-22" d="M1575.75,3161.91c-2.12,2.22-4.69,3.96-7.72,5.22-3.03,1.26-6.46,1.89-10.3,1.89-4.74,0-8.93-1.01-12.57-3.03-3.63-2.02-6.66-4.87-9.08-8.56-2.42-3.68-4.24-8.05-5.45-13.1-1.21-5.05-1.82-10.6-1.82-16.66s.63-11.61,1.89-16.66c1.26-5.05,3.13-9.39,5.6-13.02s5.5-6.44,9.08-8.4c3.58-1.97,7.75-2.95,12.49-2.95,4.14,0,7.7,.71,10.68,2.12,2.98,1.41,5.32,2.98,7.04,4.69l-7.72,12.87c-1.11-1.21-2.4-2.22-3.86-3.03-1.46-.81-3.26-1.21-5.38-1.21-4.24,0-7.44,2.35-9.61,7.04-2.17,4.69-3.26,10.88-3.26,18.55s1.11,13.83,3.33,18.47c2.22,4.64,5.6,6.96,10.14,6.96,2.12,0,3.94-.4,5.45-1.21,1.51-.81,2.83-1.92,3.94-3.33l7.12,13.33h0Z"/>
      <path class="cls-22" d="M1603.91,3104.07c1.31-5.75,3.38-10.09,6.21-13.02,2.83-2.93,6.16-4.39,9.99-4.39h1.29c.35,0,.78,.1,1.29,.3l-.91,17.56c-1.11-.3-2.32-.46-3.63-.46-2.22,0-4.19,.68-5.91,2.04-1.72,1.36-3.18,3.15-4.39,5.38-1.21,2.22-2.12,4.74-2.72,7.57-.61,2.83-.91,5.7-.91,8.63v38.76h-17.41v-77.22h16.81v14.84h.3Z"/>
      <path class="cls-22" d="M1644.34,3132.23c0,3.03,.3,5.88,.91,8.55,.61,2.67,1.49,5,2.65,6.97,1.16,1.97,2.57,3.53,4.24,4.69,1.67,1.16,3.61,1.74,5.83,1.74,3.13,0,5.63-1.01,7.49-3.03,1.87-2.02,3.36-4.34,4.47-6.96l12.57,7.27c-2.22,5.35-5.37,9.61-9.46,12.8-4.09,3.18-9.31,4.77-15.67,4.77-8.98,0-16.2-3.53-21.65-10.6-5.45-7.07-8.18-17.21-8.18-30.43,0-6.16,.71-11.79,2.12-16.88,1.41-5.1,3.43-9.46,6.06-13.1,2.62-3.63,5.73-6.44,9.31-8.4,3.58-1.97,7.6-2.95,12.04-2.95,4.95,0,9.16,1.01,12.64,3.03,3.48,2.02,6.31,4.77,8.48,8.25,2.17,3.48,3.76,7.6,4.77,12.34,1.01,4.74,1.51,9.89,1.51,15.44v6.51h-40.12Zm23.77-12.42c0-5.75-.91-10.42-2.73-14.01-1.82-3.58-4.64-5.38-8.48-5.38-2.22,0-4.11,.66-5.68,1.97-1.56,1.31-2.83,2.95-3.79,4.92-.96,1.97-1.69,4.09-2.2,6.36-.5,2.27-.76,4.32-.76,6.13h23.62Z"/>
      <path class="cls-22" d="M1730.34,3130.26h-5c-2.12,0-4.16,.18-6.13,.53-1.97,.35-3.71,1.03-5.22,2.04-1.51,1.01-2.73,2.4-3.63,4.16-.91,1.77-1.36,4.01-1.36,6.74,0,4.04,.88,7.02,2.65,8.93,1.77,1.92,3.81,2.88,6.13,2.88s4.29-.66,5.91-1.97c1.62-1.31,2.9-2.98,3.86-5,.96-2.02,1.67-4.27,2.12-6.74,.45-2.47,.68-4.87,.68-7.19v-4.39h0Zm.61,24.68c-1.11,4.24-3.13,7.55-6.06,9.92-2.93,2.37-6.81,3.56-11.66,3.56-2.22,0-4.49-.4-6.81-1.21-2.32-.81-4.42-2.15-6.28-4.01-1.87-1.87-3.41-4.29-4.62-7.27-1.21-2.98-1.82-6.59-1.82-10.83,0-5.45,.98-9.92,2.95-13.4,1.97-3.48,4.49-6.23,7.57-8.25,3.08-2.02,6.51-3.41,10.3-4.16,3.79-.76,7.49-1.14,11.13-1.14h4.24v-2.42c0-5.15-1.04-8.86-3.1-11.13-2.07-2.27-4.82-3.41-8.25-3.41-2.93,0-5.58,.68-7.95,2.04-2.37,1.36-4.42,3.15-6.13,5.38l-8.18-10.75c2.83-3.53,6.41-6.28,10.75-8.25,4.34-1.97,8.63-2.95,12.87-2.95,4.74,0,8.76,.76,12.04,2.27s5.93,3.71,7.95,6.59c2.02,2.88,3.46,6.44,4.32,10.67,.86,4.24,1.29,9.03,1.29,14.39v45.88h-14.23v-11.51h-.3Z"/>
      <path class="cls-22" d="M1782.13,3102.4v39.67c0,4.24,.63,7.32,1.89,9.24,1.26,1.92,3.2,2.88,5.83,2.88,.91,0,1.84-.1,2.8-.3,.96-.2,1.79-.51,2.5-.91l.3,13.32c-1.21,.6-2.83,1.11-4.85,1.51-2.02,.4-4.04,.61-6.06,.61-6.56,0-11.28-1.94-14.16-5.83-2.88-3.89-4.31-9.46-4.31-16.73v-43.46h-9.69v-13.17h9.69v-19.68h16.05v19.68h13.48v13.17h-13.48Z"/>
      <path class="cls-22" d="M1826.34,3066.82c0,3.03-.96,5.55-2.88,7.57-1.92,2.02-4.29,3.03-7.12,3.03s-5.32-1.01-7.19-3.03c-1.87-2.02-2.8-4.54-2.8-7.57s.93-5.45,2.8-7.57c1.87-2.12,4.27-3.18,7.19-3.18s5.32,1.06,7.19,3.18c1.87,2.12,2.8,4.64,2.8,7.57h0Zm-18.47,99.63v-77.22h16.96v77.22h-16.96Z"/>
      <path class="cls-22" d="M1900.23,3127.99c0,6.06-.68,11.61-2.04,16.66-1.36,5.05-3.33,9.36-5.91,12.94-2.57,3.58-5.68,6.39-9.31,8.4s-7.77,3.03-12.42,3.03-8.78-1.01-12.42-3.03-6.74-4.82-9.31-8.4c-2.57-3.58-4.54-7.9-5.91-12.94-1.36-5.05-2.04-10.6-2.04-16.66s.68-11.79,2.04-16.88c1.36-5.1,3.31-9.46,5.83-13.1,2.52-3.63,5.63-6.44,9.31-8.4,3.68-1.97,7.85-2.95,12.49-2.95s8.78,.98,12.42,2.95c3.63,1.97,6.74,4.77,9.31,8.4,2.57,3.63,4.54,8,5.91,13.1,1.36,5.1,2.04,10.72,2.04,16.88h0Zm-16.96-.15c0-3.73-.25-7.19-.76-10.37-.5-3.18-1.29-5.96-2.35-8.33-1.06-2.37-2.37-4.24-3.94-5.6-1.56-1.36-3.46-2.05-5.68-2.05s-4.11,.68-5.68,2.05c-1.57,1.36-2.85,3.23-3.86,5.6-1.01,2.37-1.77,5.15-2.27,8.33-.5,3.18-.76,6.64-.76,10.37s.25,7.07,.76,10.3c.5,3.23,1.26,6.01,2.27,8.33,1.01,2.32,2.3,4.16,3.86,5.53,1.56,1.36,3.46,2.04,5.68,2.04s4.14-.68,5.75-2.04c1.62-1.36,2.93-3.2,3.94-5.53,1.01-2.32,1.77-5.1,2.27-8.33,.51-3.23,.76-6.66,.76-10.3h0Z"/>
      <path class="cls-22" d="M1933.39,3089.23v12.26h.3c1.41-4.14,3.76-7.65,7.04-10.52,3.28-2.88,7.34-4.31,12.19-4.31,4.24,0,7.65,.88,10.22,2.65,2.57,1.77,4.57,4.11,5.98,7.04,1.41,2.93,2.37,6.28,2.88,10.07,.5,3.79,.76,7.65,.76,11.58v48.45h-17.11v-48.45c0-1.92-.1-3.86-.3-5.83-.2-1.97-.63-3.76-1.29-5.38s-1.62-2.9-2.88-3.86c-1.26-.96-2.9-1.44-4.92-1.44-3.84,0-6.89,1.92-9.16,5.75-2.27,3.84-3.41,8.68-3.41,14.54v44.67h-17.11v-77.22h16.81Z"/>
      <polygon class="cls-22" points="2358.28 3108.46 2358.28 3060.91 2325.98 3060.91 2325.98 3108.46 2307.85 3108.46 2307.85 3001.25 2325.98 3001.25 2325.98 3044.71 2358.28 3044.71 2358.28 3001.25 2376.41 3001.25 2376.41 3108.46 2358.28 3108.46 2358.28 3108.46"/>
      <path class="cls-22" d="M2410.07,3074.24c0,3.03,.3,5.88,.92,8.56,.61,2.68,1.5,5,2.67,6.96,1.17,1.97,2.59,3.53,4.27,4.69,1.68,1.16,3.63,1.74,5.86,1.74,3.15,0,5.66-1.01,7.54-3.03,1.88-2.02,3.38-4.34,4.5-6.96l12.64,7.27c-2.24,5.35-5.41,9.62-9.52,12.79-4.11,3.18-9.37,4.77-15.77,4.77-9.04,0-16.3-3.53-21.79-10.6-5.48-7.07-8.23-17.21-8.23-30.43,0-6.16,.71-11.79,2.13-16.88,1.42-5.1,3.45-9.46,6.09-13.1,2.64-3.63,5.76-6.44,9.37-8.4,3.61-1.97,7.64-2.95,12.11-2.95,4.98,0,9.22,1.01,12.72,3.03,3.5,2.02,6.35,4.77,8.53,8.25,2.18,3.48,3.78,7.6,4.8,12.34,1.02,4.74,1.52,9.89,1.52,15.44v6.51h-40.37Zm23.92-12.42c0-5.75-.92-10.42-2.74-14.01-1.83-3.58-4.67-5.38-8.53-5.38-2.24,0-4.14,.66-5.71,1.97-1.57,1.31-2.84,2.95-3.81,4.92-.96,1.97-1.7,4.09-2.21,6.36-.51,2.27-.76,4.32-.76,6.13h23.77Z"/>
      <path class="cls-22" d="M2496.61,3072.27h-5.03c-2.13,0-4.19,.18-6.17,.53-1.98,.35-3.73,1.03-5.26,2.04-1.52,1.01-2.74,2.4-3.66,4.16-.91,1.77-1.37,4.01-1.37,6.74,0,4.04,.89,7.01,2.67,8.93,1.78,1.92,3.83,2.88,6.17,2.88s4.32-.66,5.94-1.97c1.62-1.31,2.92-2.98,3.88-5,.97-2.02,1.68-4.27,2.13-6.74,.46-2.47,.69-4.87,.69-7.19v-4.39h0Zm.61,24.68c-1.12,4.24-3.15,7.55-6.09,9.92-2.95,2.37-6.86,3.56-11.73,3.56-2.23,0-4.52-.4-6.86-1.21-2.34-.81-4.44-2.15-6.32-4.01-1.88-1.87-3.43-4.29-4.65-7.27-1.22-2.98-1.83-6.59-1.83-10.83,0-5.45,.99-9.92,2.97-13.4,1.98-3.48,4.52-6.23,7.62-8.25,3.1-2.02,6.55-3.41,10.36-4.16,3.81-.76,7.54-1.14,11.2-1.14h4.27v-2.42c0-5.15-1.04-8.86-3.12-11.13-2.08-2.27-4.85-3.41-8.3-3.41-2.95,0-5.61,.68-8,2.04-2.39,1.36-4.44,3.16-6.17,5.38l-8.23-10.75c2.84-3.53,6.45-6.28,10.82-8.25,4.37-1.97,8.68-2.95,12.95-2.95,4.77,0,8.81,.76,12.11,2.27,3.3,1.51,5.97,3.71,8,6.59,2.03,2.88,3.48,6.44,4.34,10.68,.86,4.24,1.3,9.03,1.3,14.38v45.88h-14.32v-11.51h-.3Z"/>
      <polygon class="cls-22" points="2531.35 3108.46 2531.35 2993.99 2548.71 2993.99 2548.71 3108.46 2531.35 3108.46 2531.35 3108.46"/>
      <path class="cls-22" d="M2586.8,3044.41v39.67c0,4.24,.64,7.32,1.91,9.24,1.27,1.92,3.22,2.88,5.86,2.88,.91,0,1.85-.1,2.82-.3,.97-.2,1.8-.5,2.51-.91l.3,13.32c-1.22,.61-2.84,1.11-4.88,1.51-2.03,.4-4.06,.61-6.09,.61-6.6,0-11.35-1.94-14.25-5.83-2.89-3.89-4.34-9.46-4.34-16.73v-43.46h-9.75v-13.17h9.75v-19.68h16.15v19.68h13.56v13.17h-13.56Z"/>
      <path class="cls-22" d="M2652.01,3108.46v-48.45c0-1.92-.1-3.86-.3-5.83-.2-1.97-.64-3.76-1.29-5.38-.66-1.62-1.62-2.9-2.9-3.86-1.27-.96-2.92-1.44-4.95-1.44-3.86,0-6.93,1.92-9.22,5.75-2.29,3.84-3.43,8.68-3.43,14.54v44.67h-17.22v-114.47h17.22v49.21h.3c1.32-3.94,3.58-7.34,6.78-10.22,3.2-2.88,7.24-4.32,12.11-4.32,4.27,0,7.72,.88,10.36,2.65,2.64,1.77,4.67,4.11,6.09,7.04,1.42,2.93,2.39,6.28,2.9,10.07,.51,3.78,.76,7.65,.76,11.58v48.45h-17.22Z"/>
      <path class="cls-7" d="M460.52,1233.38c-14.59-1.37-29.28-1.37-43.87,0l-7.22,33.95c-13.98,2.06-27.69,5.61-40.87,10.57l-23.85-25.91c-13.34,5.86-26.07,12.95-37.99,21.17l11.33,32.89c-11.04,8.54-21.07,18.22-29.92,28.87l-34.07-10.94c-8.52,11.51-15.87,23.79-21.94,36.67l26.85,23.01c-5.14,12.72-8.81,25.95-10.95,39.44l-35.17,6.97c-1.42,14.08-1.42,28.26,0,42.34l35.17,6.97c2.14,13.5,5.81,26.72,10.95,39.44l-26.85,23.01c6.07,12.88,13.41,25.16,21.94,36.67l34.07-10.94c8.85,10.66,18.88,20.34,29.92,28.87l-11.33,32.89c11.93,8.23,24.65,15.31,37.99,21.17l23.85-25.91c13.18,4.96,26.89,8.5,40.87,10.57l7.22,33.95c14.59,1.37,29.28,1.37,43.87,0l7.23-33.95c13.98-2.06,27.69-5.61,40.87-10.57l23.85,25.91c13.34-5.85,26.07-12.94,37.99-21.17l-11.33-32.89c11.04-8.54,21.07-18.22,29.92-28.87l34.07,10.94c8.52-11.51,15.87-23.79,21.94-36.67l-26.85-23.01c5.14-12.72,8.81-25.95,10.95-39.44l35.18-6.97c1.42-14.08,1.42-28.26,0-42.34l-35.18-6.97c-2.14-13.5-5.81-26.72-10.95-39.44l26.85-23.01c-6.07-12.88-13.41-25.16-21.94-36.67l-34.07,10.94c-8.84-10.65-18.88-20.34-29.92-28.87l11.33-32.89c-11.93-8.23-24.65-15.31-37.99-21.17l-23.85,25.91c-13.18-4.96-26.88-8.5-40.87-10.57l-7.23-33.95h0Zm-21.93,174.09c25.04,0,45.36,19.62,45.36,43.78s-20.33,43.78-45.36,43.78-45.36-19.62-45.36-43.78,20.33-43.78,45.36-43.78h0Z"/>
      <polygon class="cls-10" points="3880.14 2708.21 3489.35 2708.21 3489.35 2915.41 3880.14 2915.41 3880.14 2708.21 3880.14 2708.21"/>
      <g class="cls-14">
        <polygon class="cls-4" points="3743.71 2742.74 3620.55 2742.74 3620.55 2945.94 3743.71 2945.94 3743.71 2742.74 3743.71 2742.74"/>
      </g>
      <polygon class="cls-10" points="3684.74 2498.3 3880.14 2708.21 3489.35 2708.21 3684.74 2498.3 3684.74 2498.3"/>
      <path class="cls-7" d="M3718.99,2493.06c15.86-18.09-31.3-69.29-48.81-53.01-39.84,37.03-180.33,181.47-224.92,231.56-15.99,17.96,28.96,65.96,48.82,53.01,9.78-6.38,22.95-17.93,38.97-34.77,59.76-62.83,150.38-156.22,185.95-196.79h0Z"/>
      <path class="cls-7" d="M3644.62,2493.06c-15.86-18.09,31.3-69.29,48.81-53.01,39.84,37.03,180.32,181.47,224.92,231.56,15.99,17.96-28.96,65.96-48.81,53.01-9.78-6.38-22.96-17.93-38.97-34.77-59.76-62.83-150.38-156.22-185.95-196.79h0Z"/>
      <path class="cls-4" d="M3587.69,2773.82h-60.02v59.46h60.02v-59.46h0Zm-30.56,2.41l.13,56.33m26.59-28.23l-53.3,.13m183.81-180.08h-60.02v59.5h60.02v-59.5h0Zm-30.56,2.41l.13,56.36m26.59-28.25l-53.3,.13m180.98,120.26h-60.02v59.5h60.02v-59.5h0Zm-30.56,2.41l.13,56.36m26.59-28.25l-53.3,.13"/>
      <path class="cls-7" d="M3626.51,1347.86l-40.76-53.22c31.31-16.54,44.18,1.74,44.18,1.74,12.98-20.18,24.28-21.94,29.27-23.06,1.87-.42,2.16-.3,3.15-.35,1.15-.06,2.7-.08,3.99-.03,5.55,.19,11.03,2.22,15.9,4.71,11.28,5.77,19.52,16.04,19.36,17.48,34.09-23.94,39.83-2.6,39.83-2.6l-35.38,55.2c52.52,58.11,111.13,160.36,111.13,214.01,0,102.79-53.11,155.39-151.47,155.39s-154.6-49.16-154.6-151.95c0-53.6,62.89-159.2,115.42-217.33h0Z"/>
      <path class="cls-7" d="M3719.06,2821.36c5.6,0,10.15,4.84,10.15,10.8s-4.55,10.8-10.15,10.8-10.15-4.84-10.15-10.8,4.55-10.8,10.15-10.8h0Z"/>
      <g class="cls-20">
        <polygon class="cls-12" points="3742.51 1336.85 3582.27 1336.85 3582.27 1364.98 3742.51 1364.98 3742.51 1336.85 3742.51 1336.85"/>
        <path class="cls-15" d="M3620.44,1573.15l21.02-3.71c1.18,9.45,4.47,16.7,9.86,21.74,5.39,5.04,12.93,7.55,22.62,7.55s17.01-2.23,21.73-6.69c4.72-4.46,7.09-9.7,7.09-15.71,0-5.39-2.09-9.63-6.26-12.72-2.91-2.12-10.16-4.82-21.73-8.08-15.59-4.42-26.4-8.24-32.42-11.47-6.02-3.23-10.59-7.69-13.7-13.39-3.11-5.7-4.67-12-4.67-18.89,0-6.27,1.28-12.08,3.84-17.43,2.56-5.35,6.04-9.79,10.45-13.32,3.31-2.74,7.81-5.06,13.52-6.96,5.71-1.9,11.83-2.85,18.36-2.85,9.84,0,18.48,1.59,25.92,4.77,7.44,3.18,12.93,7.49,16.47,12.92,3.54,5.43,5.98,12.7,7.32,21.8l-20.79,3.18c-.95-7.25-3.68-12.9-8.21-16.97-4.53-4.07-10.92-6.1-19.19-6.1-9.76,0-16.73,1.81-20.9,5.43-4.17,3.62-6.26,7.86-6.26,12.72,0,3.09,.87,5.88,2.6,8.35,1.73,2.56,4.45,4.68,8.15,6.36,2.13,.88,8.39,2.92,18.78,6.1,15.04,4.51,25.53,8.2,31.47,11.07,5.94,2.87,10.61,7.05,13.99,12.52,3.39,5.48,5.08,12.28,5.08,20.41s-2.07,15.44-6.2,22.47c-4.13,7.02-10.1,12.46-17.89,16.3-7.79,3.84-16.61,5.77-26.45,5.77-16.3,0-28.72-3.8-37.26-11.4-8.54-7.6-14-18.86-16.36-33.8h0Z"/>
        <polygon class="cls-12" points="3684.6 1609.89 3665.57 1609.89 3665.57 1641.27 3684.6 1641.27 3684.6 1609.89 3684.6 1609.89"/>
        <polygon class="cls-12" points="3684.42 1452.01 3665.39 1452.01 3665.39 1483.39 3684.42 1483.39 3684.42 1452.01 3684.42 1452.01"/>
      </g>
      <path class="cls-6" d="M2777.87,3565.6c52.75-92.73,158.27-92.73,211.02-46.37,52.76,46.37,52.76,139.1,0,231.83-36.93,69.55-131.89,139.1-211.02,185.46-79.13-46.37-174.09-115.92-211.02-185.46-52.76-92.73-52.76-185.46,0-231.83,52.76-46.37,158.27-46.37,211.02,46.37h0Z"/>
      <g class="cls-18">
        <polyline class="cls-3" points="2521.54 3712.65 2656.83 3712.65 2697.38 3619.88 2752.89 3802.75 2862.64 3546.86 2884.37 3712.65 3028.46 3712.65"/>
      </g>
      <polygon class="cls-8" points="2791.37 624.62 2765.07 619.44 2762.09 633.92 2788.39 639.11 2791.37 624.62 2791.37 624.62"/>
      <path class="cls-7" d="M2925.34,292.67c35.39,0,64.12,28.11,64.12,62.74s-28.73,62.74-64.12,62.74-64.12-28.11-64.12-62.74,28.73-62.74,64.12-62.74h0Z"/>
      <polygon class="cls-7" points="2988.7 425.13 2866.84 425.13 2866.84 626.97 2988.7 626.97 2988.7 425.13 2988.7 425.13"/>
      <path class="cls-7" d="M3023.98,642.77l-70.34-33.43c-14.43-6.86-20.58-24.14-13.72-38.57,6.86-14.43,24.14-20.58,38.57-13.72l80.11,38.08c6.3,2.99,11.31,8.16,14.1,14.55l48.49,110.95c6.4,14.64-.29,31.72-14.94,38.12-14.64,6.4-31.72-.29-38.12-14.94l-44.15-101.04h0Z"/>
      <path class="cls-7" d="M2885.57,700.58l-17.58-71.26c-3.83-15.51,5.66-31.21,21.17-35.04,15.51-3.83,31.21,5.66,35.04,21.17l20.9,84.71c2.1,8.51,.23,17.51-5.08,24.48l-88.59,116.28c-9.68,12.71-27.86,15.17-40.57,5.49-12.71-9.68-15.17-27.86-5.49-40.57l80.19-105.26h0Z"/>
      <path class="cls-7" d="M3068.87,477.95l86.61-39.57c14.53-6.64,31.72-.23,38.36,14.3,6.64,14.53,.23,31.72-14.3,38.36l-102.1,46.65c-9.56,4.37-20.74,3.21-29.2-3.02l-78.89-58.12c-12.86-9.48-15.61-27.61-6.14-40.48,9.48-12.86,27.61-15.61,40.48-6.14l65.18,48.02h0Z"/>
      <path class="cls-7" d="M2829.8,529.66l-17.9,81.85c-3.41,15.61-18.86,25.51-34.47,22.09-15.61-3.41-25.51-18.86-22.1-34.47l19.92-91.08c1.31-6,4.5-11.42,9.09-15.49l68.56-60.67c11.96-10.59,30.28-9.47,40.87,2.49,10.59,11.96,9.47,30.28-2.49,40.87l-61.48,54.41h0Z"/>
      <path class="cls-11" d="M2804.53,656.39c.75-4.06-.15-8.25-2.5-11.65-2.35-3.4-5.96-5.71-10.03-6.44-9.49-1.69-21.61-3.84-31.06-5.52-8.38-1.49-16.4,4.06-17.95,12.43-2.02,10.87-4.38,23.61-4.38,23.61l61.57,10.94s2.33-12.56,4.34-23.37h0Z"/>
      <g class="cls-21">
        <path class="cls-7" d="M2795.18,662.01c.75-4.06-.14-8.26-2.5-11.65-2.35-3.4-5.96-5.71-10.03-6.44-4.54-.81-9.51-1.69-14.04-2.49-8.38-1.49-16.4,4.06-17.95,12.43-1.45,7.78-2.91,15.66-2.91,15.66l44.55,7.92s1.43-7.72,2.86-15.42h0Z"/>
      </g>
      <path class="cls-7" d="M2837.62,693.39c1.33-7.18-.26-14.59-4.41-20.6-4.16-6-10.54-10.1-17.73-11.37-25.34-4.5-62.9-11.18-88.1-15.66-14.82-2.63-28.98,7.18-31.73,21.97-2.54,13.71-5.64,30.37-8.19,44.13-1.33,7.18,.26,14.59,4.41,20.6,4.16,6,10.54,10.1,17.73,11.38,25.34,4.5,62.9,11.18,88.1,15.66,14.81,2.63,28.98-7.18,31.73-21.97,2.54-13.71,5.64-30.37,8.19-44.13h0Z"/>
      <g class="cls-16">
        <path class="cls-1" d="M2692.21,678.64s4.91,5.69,9.07,10.51c3.69,4.27,8.73,7.15,14.29,8.16,20.51,3.71,72.13,13.05,92.48,16.73,5.47,.99,11.11,.1,16.02-2.52,6.59-3.52,15.08-8.08,15.02-8.19"/>
      </g>
      <polygon class="cls-7" points="2771.51 703.66 2756.7 701.03 2755.44 707.8 2770.25 710.44 2771.51 703.66 2771.51 703.66"/>
      <polygon class="cls-7" points="2942.7 411.41 2908.23 411.41 2908.23 434.18 2942.7 434.18 2942.7 411.41 2942.7 411.41"/>
      <path class="cls-7" d="M1276.65,3770.06c-12.81-36.78-20.88-70.41-20.88-96.8,0-101.82,85.4-184.49,190.6-184.49s190.6,82.67,190.6,184.49c0,32.22-12.02,75.22-30.03,121.56h-.34c-10.23,26.78-24.41,56.42-32.74,65.38-9.44,10.17-38.77-4.21-37.97-18.62,1.18-21.11,31.19-93.12,45.03-108.02,4.73-5.1,14.47-4.03,22.89,.13,.72-6.95,1.09-13.56,1.09-19.77,0-101.82-72-184.49-160.69-184.49s-160.69,82.67-160.69,184.49c0,6.72,.44,13.9,1.28,21.49,9.01-5.5,20.69-7.59,26.02-1.85,13.83,14.9,43.85,86.91,45.03,108.02,.8,14.41-28.53,28.79-37.97,18.62-11.07-11.92-32.51-60.43-41.23-90.14h0Z"/>
      <path class="cls-7" d="M1288.43,767.99c-2.29-44.82,1.1-75.88-14.76-118.02-14.56-38.68-75.32-1.06-93.57-36.44-12.04-23.34,2.39-95.83-10.39-101.53-16.4-7.32-46.62,3.14-37.23-14.81,18.67-35.67,38.03-47.22,48.12-73.33,13.34-34.51-2.12-68.52,9.03-103.05,20.89-64.71,101.73-89.49,178.15-79.38,32.05,4.24,69.63,17.32,95.38,33.99,77.32,50.06,105.66,146.32,75.74,219.44-11.51,28.12-23.5,47.34-46.53,74.77-16.5,19.65-52.43,44.5-48.47,68.49,4.28,25.92,3.73,33.34,4.79,68.49,1.45,47.93,2.71,23.04,2.4,61.78l-162.65-.39h0Z"/>
      <polygon class="cls-12" points="1381.82 353.12 1316.04 353.12 1316.04 529.43 1381.82 529.43 1381.82 353.12 1381.82 353.12"/>
      <polygon class="cls-12" points="1437.07 474.17 1437.07 408.38 1260.8 408.38 1260.8 474.17 1437.07 474.17 1437.07 474.17"/>
      <path class="cls-10" d="M577.23,2837.73H211.78c0-107.69,81.88-195.12,182.72-195.12s182.72,87.43,182.72,195.12h0Z"/>
      <path class="cls-10" d="M394.51,2505.51c45.29,0,82.07,39.69,82.07,88.57s-36.77,88.57-82.07,88.57-82.07-39.69-82.07-88.57,36.77-88.57,82.07-88.57h0Z"/>
      <path class="cls-7" d="M759.95,2906.28H394.51c0-107.69,81.88-195.12,182.72-195.12s182.72,87.43,182.72,195.12h0Z"/>
      <path class="cls-7" d="M577.23,2574.06c45.29,0,82.07,39.69,82.07,88.57s-36.77,88.57-82.07,88.57-82.07-39.69-82.07-88.57,36.77-88.57,82.07-88.57h0Z"/>
      <path class="cls-7" d="M1906.1,2387.08c17.88-18.41,59.38-107.73,72.95-128.92,1.44-2.26,26.27,.17,53.46-.8,59.66-2.14,46.88-1.27,99.67-1.82,20.28-.21,37.05-.17,54.73,.54,8.27,.33,77,113.88,77.42,118.74,2.04,23.95-93.16,41.64-114,43.39-35.31,2.97-70.75,.85-106.11,.57-49.04-.39-138.12-31.71-138.12-31.71h0Z"/>
      <path class="cls-7" d="M2200.01,2479.01c-30.92,6.94-62.36,5.62-93.76,3.82-19.83-1.14-39.64-2.6-59.45-4.07-23.28-1.73-49.24-1.3-71.99-6.83-.89-.21-7.39-1.5-7.45-2.25-.38-4.73,3.36-10.94,5.99-14.59,9.98-13.82,29.1-19.09,44.77-21.82,1.62-.28,4.51-.71,6.13-.93,1.04-.14,2.08-.29,3.12-.41,4.16-.5,8.35-.85,12.53-1.17,25.35-1.98,50.67-2.4,76.09-2.36,20.54,.03,41.93,1.89,61.96-3.89,6.31-1.82,23.67-10.6,30.37-5.43,13.65,10.52-8.32,59.93-8.32,59.93h0Z"/>
      <path class="cls-7" d="M1920.61,2391.54c38.86,4.05,103.19,21.48,139.07,9.89,12.26-3.96,21.19-13.82,32.77-19.21,23.32-10.86,48.22,4.72,72.14,4.76,23.46,.04,106.82-29.24,117.12,5.94,1.82,6.2,.56,9.86-3.65,12.39-5.35,3.22-12.12-2.03-21.69-.04-12.76,2.65-28.51,13.39-39.77,15.86-26.7,5.86-46.55,15.67-72.17,24.96-40.98,14.86-86.48,22.65-129.17,29.32-21.49,3.35-75.62,8.56-94.1,4.99-8.64-1.67-.56-88.87-.56-88.87h0Z"/>
      <path class="cls-7" d="M1965.91,2369.76c-47.23-6.74-94.44-13.52-141.66-20.33-42.8-6.17-89.91-19.42-133.09-10.28-85.41,18.08-77.97,93.79-1.52,126.74,64.87,27.96,147.24,28.39,216.01,18.51,11.88-1.71,57.88-7.49,67.01-13.7,3.09-2.1-6.75-100.94-6.75-100.94h0Z"/>
      <path class="cls-7" d="M2195.3,2418.69c44.28-18.8,87.43-37.7,133.08-53.21,29.03-9.86,59.08-17.07,88.98-23.56,30.8-6.68,141.33-22.44,123.94,44.54-6.38,24.59-29.1,40.46-49.04,54.1-52.14,35.65-128.45,37.51-189.55,41.24-25.01,1.52-39.85,1.29-72.74,1.64-4.02,.04-36.21,3.23-39.34-.18-8.2-8.93,4.68-64.57,4.68-64.57h0Z"/>
      <path class="cls-7" d="M2211.46,1857.39c117.16,25.06,95.86,187.27,134.7,276.99,14.06,32.47,136.93,154.39,170.82,168.57,8.65,3.62,15.5-54.81,42-20.17,4.37,5.72,8.07,11.94,11.3,18.4,5.57,11.16,6.74,21.3,2.18,32.9-16.98,43.22-117.07-22.93-136.88-35.73-50.78-32.8-104.25-73.99-138.78-125.31-22.09-32.82-25.91-95.29-39.69-134.04-11.74-33.01-38.68-60.11-46.6-93.76-6.55-27.82,.95-87.87,.95-87.87h0Z"/>
      <path class="cls-7" d="M1946.67,1860.96c-116.8,26.76-93.25,188.65-130.83,278.92-13.61,32.67-134.76,156.36-168.45,171.03-8.59,3.74-16.26-54.57-42.28-19.55-4.29,5.78-7.91,12.06-11.04,18.56-5.42,11.24-6.44,21.4-1.72,32.93,17.58,42.97,119.51-18.43,139.14-31.51,50.32-33.53,100.44-81.69,134.25-133.51,21.63-33.14,24.58-95.65,37.82-134.61,11.28-33.18,37.84-60.67,45.29-94.43,6.16-27.91-2.17-87.84-2.17-87.84h0Z"/>
      <path class="cls-7" d="M1937.21,1863.79c34.7-10.93,133.77-26.28,166.03-21.47,18.36,2.74,57.52,5.84,76.44,9.16,35.3,6.19-62.93,184.45-155.32,101.39-29.34-26.38-87.14-89.08-87.14-89.08h0Z"/>
      <path class="cls-7" d="M1977.07,2267.88c21.73-70.86-42.33-133.49-52.75-200.37-7.3-46.89,12.14-93.03,17.76-139.21,1.81-14.91,2.83-29.9,1.82-44.9-.26-3.78-8.53-17.34-5.47-18.7,8.17-3.64,25.95-7.16,31.37-7.91,6.76-.93,12.39-1.93,29.82-5.97,5.23-1.22,3.43,14.19,4.61,19.18,9.11,38.51,28.55,73.55,71.46,75.4,41.31,1.78,71.97-28.47,80.21-68.23,1.01-4.87,1.49-22.95,4.79-26.41,.11-.11,.3,.05,.46,.05,19.54,.31,43.56,2.77,61.84,11.56,16.14,7.76-3.2,28.03-3.18,29.7,.93,57.53,23.6,97.36,17.36,154.94-4.44,40.98-32.6,75.12-41.71,115.04-4.67,20.45-9.57,43.04-9.51,64.16,.03,11.13,5.95,27.69,3.44,38.29-5.34,22.58-212.32,3.39-212.32,3.39h0Z"/>
      <path class="cls-7" d="M2039.28,1786.26c1.6,22.88,1.17,45.79,2.43,68.65,.41,7.55,32.97,10.89,37.32,10.68,5.13-.25,39.49-4.34,40.22-5.3,4.79-6.32,1.07-60.73,1.44-73.09,.01-.34,.34-2.69,.11-2.9-10.12-9.21-81.52,1.96-81.52,1.96h0Z"/>
      <path class="cls-7" d="M2075.87,1543.27c66.25,0,117.06,67.07,106.55,144.84-6.03,44.6-16.61,62.48-32.37,86-11.54,17.23-37.82,45.59-63.98,46.63-24.85,.99-57.58-23.22-72.69-42.03-20.01-24.93-22.97-32.74-34.21-64.77-1.84-5.24-3.1-16.76-3.1-23.42,0-78.51,33.55-147.25,99.8-147.25h0Z"/>
      <path class="cls-7" d="M1981.2,1661.05c-23.31-9.53-22.88,23.14-18.09,37.49,2.29,6.87,11.01,37.23,22.23,28.05,5.88-4.81,4.42-14.53,3.49-21.24-1.73-12.53-7.63-44.3-7.63-44.3h0Z"/>
      <path class="cls-7" d="M2179.03,1659.2c23.31-9.53,22.88,23.14,18.09,37.49-2.29,6.87-11.01,37.23-22.23,28.05-5.88-4.81-4.42-14.53-3.49-21.24,1.73-12.53,7.63-44.3,7.63-44.3h0Z"/>
      <path class="cls-7" d="M1976.57,1669.32s8.08-53.29,45.9-83.8c12.27-9.9,29.27-14.36,48.04-17.81,0,0,36.77-4.76,67.67,16.94,19.6,13.77,32.68,38.99,45.81,80.34,0,0,2.99-23.79,2.82-45.52-.16-20.46-9-49.76-15.67-62.32-16.76-31.57-61.76-53.86-95.01-51.23-30.06,2.39-58.85,8.63-84.15,45.73,0,0-27.19,48.31-15.41,117.67h0Z"/>
    </g>
  </g>
</svg>