<svg width="549" height="402" viewBox="0 0 549 402" fill="none" xmlns="http://www.w3.org/2000/svg">
<path fill-rule="evenodd" clip-rule="evenodd" d="M366.23 332.73H0.780029C0.780029 225.04 82.66 137.61 183.5 137.61C284.34 137.61 366.22 225.04 366.22 332.73H366.23Z" fill="#5CE2EB"/>
<path fill-rule="evenodd" clip-rule="evenodd" d="M183.51 0.509766C228.8 0.509766 265.58 40.1998 265.58 89.0798C265.58 137.96 228.81 177.65 183.51 177.65C138.21 177.65 101.44 137.96 101.44 89.0798C101.44 40.1998 138.21 0.509766 183.51 0.509766Z" fill="#5CE2EB"/>
<path fill-rule="evenodd" clip-rule="evenodd" d="M548.95 401.28H183.51C183.51 293.59 265.39 206.16 366.23 206.16C467.07 206.16 548.95 293.59 548.95 401.28Z" fill="white"/>
<path fill-rule="evenodd" clip-rule="evenodd" d="M366.23 69.0601C411.52 69.0601 448.3 108.75 448.3 157.63C448.3 206.51 411.53 246.2 366.23 246.2C320.93 246.2 284.16 206.51 284.16 157.63C284.16 108.75 320.93 69.0601 366.23 69.0601Z" fill="white"/>
</svg>
