<svg width="510" height="560" viewBox="0 0 510 560" fill="none" xmlns="http://www.w3.org/2000/svg">
<path fill-rule="evenodd" clip-rule="evenodd" d="M104.369 331.95L78.0688 326.77L75.0889 341.25L101.389 346.44L104.369 331.95Z" fill="#989898"/>
<path fill-rule="evenodd" clip-rule="evenodd" d="M238.339 0C273.729 0 302.459 28.11 302.459 62.74C302.459 97.37 273.729 125.48 238.339 125.48C202.949 125.48 174.219 97.37 174.219 62.74C174.219 28.11 202.949 0 238.339 0Z" fill="white"/>
<path fill-rule="evenodd" clip-rule="evenodd" d="M301.699 132.46H179.839V334.3H301.699V132.46Z" fill="white"/>
<path fill-rule="evenodd" clip-rule="evenodd" d="M336.979 350.1L266.639 316.67C252.209 309.81 246.059 292.53 252.919 278.1C259.779 263.67 277.059 257.52 291.489 264.38L371.599 302.46C377.899 305.45 382.909 310.62 385.699 317.01L434.189 427.96C440.589 442.6 433.899 459.68 419.249 466.08C404.609 472.48 387.529 465.79 381.129 451.14L336.979 350.1Z" fill="white"/>
<path fill-rule="evenodd" clip-rule="evenodd" d="M198.569 407.91L180.989 336.65C177.159 321.14 186.649 305.44 202.159 301.61C217.669 297.78 233.369 307.27 237.199 322.78L258.099 407.49C260.199 416 258.329 425 253.019 431.97L164.429 548.25C154.749 560.96 136.569 563.42 123.859 553.74C111.149 544.06 108.689 525.88 118.369 513.17L198.559 407.91H198.569Z" fill="white"/>
<path fill-rule="evenodd" clip-rule="evenodd" d="M381.869 185.28L468.479 145.71C483.009 139.07 500.199 145.48 506.839 160.01C513.479 174.54 507.069 191.73 492.539 198.37L390.439 245.02C380.879 249.39 369.699 248.23 361.239 242L282.349 183.88C269.489 174.4 266.739 156.27 276.209 143.4C285.689 130.54 303.819 127.79 316.689 137.26L381.869 185.28Z" fill="white"/>
<path fill-rule="evenodd" clip-rule="evenodd" d="M142.799 236.99L124.899 318.84C121.489 334.45 106.039 344.35 90.4287 340.93C74.8187 337.52 64.9189 322.07 68.3289 306.46L88.2488 215.38C89.5588 209.38 92.7489 203.96 97.3389 199.89L165.899 139.22C177.859 128.63 196.179 129.75 206.769 141.71C217.359 153.67 216.239 171.99 204.279 182.58L142.799 236.99Z" fill="white"/>
<path fill-rule="evenodd" clip-rule="evenodd" d="M117.529 363.72C118.279 359.66 117.379 355.47 115.029 352.07C112.679 348.67 109.069 346.36 104.999 345.63C95.5088 343.94 83.3887 341.79 73.9387 340.11C65.5587 338.62 57.5388 344.17 55.9888 352.54C53.9688 363.41 51.6089 376.15 51.6089 376.15L113.179 387.09C113.179 387.09 115.509 374.53 117.519 363.72H117.529Z" fill="#89B752"/>
<mask id="mask0_535_627" style="mask-type:luminance" maskUnits="userSpaceOnUse" x="51" y="339" width="67" height="49">
<path d="M117.529 363.72C118.279 359.66 117.379 355.47 115.029 352.07C112.679 348.67 109.069 346.36 104.999 345.63C95.5088 343.94 83.3887 341.79 73.9387 340.11C65.5587 338.62 57.5388 344.17 55.9888 352.54C53.9688 363.41 51.6089 376.15 51.6089 376.15L113.179 387.09C113.179 387.09 115.509 374.53 117.519 363.72H117.529Z" fill="white"/>
</mask>
<g mask="url(#mask0_535_627)">
<path fill-rule="evenodd" clip-rule="evenodd" d="M108.179 369.34C108.929 365.28 108.039 361.08 105.679 357.69C103.329 354.29 99.7187 351.98 95.6487 351.25C91.1087 350.44 86.1389 349.56 81.6089 348.76C73.2289 347.27 65.2087 352.82 63.6587 361.19C62.2087 368.97 60.7488 376.85 60.7488 376.85L105.299 384.77C105.299 384.77 106.729 377.05 108.159 369.35L108.179 369.34Z" fill="white"/>
</g>
<path fill-rule="evenodd" clip-rule="evenodd" d="M150.619 400.72C151.949 393.54 150.359 386.13 146.209 380.12C142.049 374.12 135.669 370.02 128.479 368.75C103.139 364.25 65.5786 357.57 40.3786 353.09C25.5586 350.46 11.3986 360.27 8.64861 375.06C6.10861 388.77 3.00866 405.43 0.458664 419.19C-0.871336 426.37 0.71882 433.78 4.86882 439.79C9.02882 445.79 15.4088 449.89 22.5988 451.17C47.9388 455.67 85.4987 462.35 110.699 466.83C125.509 469.46 139.679 459.65 142.429 444.86C144.969 431.15 148.069 414.49 150.619 400.73V400.72Z" fill="white"/>
<mask id="mask1_535_627" style="mask-type:luminance" maskUnits="userSpaceOnUse" x="0" y="352" width="152" height="116">
<path d="M150.619 400.72C151.949 393.54 150.359 386.13 146.209 380.12C142.049 374.12 135.669 370.02 128.479 368.75C103.139 364.25 65.5786 357.57 40.3786 353.09C25.5586 350.46 11.3986 360.27 8.64861 375.06C6.10861 388.77 3.00866 405.43 0.458664 419.19C-0.871336 426.37 0.71882 433.78 4.86882 439.79C9.02882 445.79 15.4088 449.89 22.5988 451.17C47.9388 455.67 85.4987 462.35 110.699 466.83C125.509 469.46 139.679 459.65 142.429 444.86C144.969 431.15 148.069 414.49 150.619 400.73V400.72Z" fill="white"/>
</mask>
<g mask="url(#mask1_535_627)">
<path d="M5.20874 385.97C5.20874 385.97 10.1188 391.66 14.2788 396.48C17.9688 400.75 23.0088 403.63 28.5688 404.64C49.0788 408.35 100.699 417.69 121.049 421.37C126.519 422.36 132.159 421.47 137.069 418.85C143.659 415.33 152.149 410.77 152.089 410.66" stroke="#989898" stroke-width="2.34" stroke-linecap="round" stroke-linejoin="round"/>
</g>
<path fill-rule="evenodd" clip-rule="evenodd" d="M84.5088 410.99L69.6987 408.36L68.4387 415.13L83.2488 417.77L84.5088 410.99Z" fill="white"/>
<path fill-rule="evenodd" clip-rule="evenodd" d="M255.699 118.74H221.229V141.51H255.699V118.74Z" fill="white"/>
</svg>
