<svg width="421" height="530" viewBox="0 0 421 530" fill="none" xmlns="http://www.w3.org/2000/svg">
<path fill-rule="evenodd" clip-rule="evenodd" d="M158.43 528.99C156.14 484.17 159.53 453.11 143.67 410.97C129.11 372.29 68.35 409.91 50.1 374.53C38.06 351.19 52.49 278.7 39.71 273C23.31 265.68 -6.91 276.14 2.48 258.19C21.15 222.52 40.51 210.97 50.6 184.86C63.94 150.35 48.48 116.34 59.63 81.8101C80.52 17.1001 161.36 -7.67988 237.78 2.43012C269.83 6.67012 307.41 19.7501 333.16 36.4201C410.48 86.4801 438.82 182.74 408.9 255.86C397.39 283.98 385.4 303.2 362.37 330.63C345.87 350.28 309.94 375.13 313.9 399.12C318.18 425.04 317.63 432.46 318.69 467.61C320.14 515.54 321.4 490.65 321.09 529.39L158.44 529L158.43 528.99Z" fill="white"/>
<path fill-rule="evenodd" clip-rule="evenodd" d="M251.82 114.12H186.04V290.43H251.82V114.12Z" fill="#20B2BF"/>
<path fill-rule="evenodd" clip-rule="evenodd" d="M307.07 235.17V169.38H130.8V235.17H307.07Z" fill="#20B2BF"/>
</svg>
