<svg width="502" height="449" viewBox="0 0 502 449" fill="none" xmlns="http://www.w3.org/2000/svg">
<path fill-rule="evenodd" clip-rule="evenodd" d="M250.87 77.5999C303.62 -15.1301 409.14 -15.1302 461.89 31.2298C514.65 77.5998 514.65 170.33 461.89 263.06C424.96 332.61 330 402.16 250.87 448.52C171.74 402.15 76.78 332.6 39.85 263.06C-12.91 170.33 -12.91 77.5998 39.85 31.2298C92.61 -15.1402 198.12 -15.1401 250.87 77.5999Z" fill="#5FE2EB"/>
<mask id="mask0_535_631" style="mask-type:luminance" maskUnits="userSpaceOnUse" x="0" y="0" width="502" height="449">
<path d="M250.87 77.5999C303.62 -15.1301 409.14 -15.1302 461.89 31.2298C514.65 77.5998 514.65 170.33 461.89 263.06C424.96 332.61 330 402.16 250.87 448.52C171.74 402.15 76.78 332.6 39.85 263.06C-12.91 170.33 -12.91 77.5998 39.85 31.2298C92.61 -15.1402 198.12 -15.1401 250.87 77.5999Z" fill="white"/>
</mask>
<g mask="url(#mask0_535_631)">
<path d="M-5.45996 224.65H129.83L170.38 131.88L225.89 314.75L335.64 58.8599L357.37 224.65H501.46" stroke="white" stroke-width="34.69" stroke-linecap="round" stroke-linejoin="round"/>
</g>
</svg>
