<svg width="307" height="1571" viewBox="0 0 307 1571" fill="none" xmlns="http://www.w3.org/2000/svg">
<path fill-rule="evenodd" clip-rule="evenodd" d="M115.51 75.86L74.75 22.64C106.06 6.10002 118.93 24.38 118.93 24.38C131.91 4.20001 143.21 2.43995 148.2 1.31995C150.07 0.899955 150.36 1.01998 151.35 0.969979C152.5 0.909979 154.05 0.88995 155.34 0.93995C160.89 1.12995 166.37 3.16003 171.24 5.65003C182.52 11.42 190.76 21.69 190.6 23.13C224.69 -0.809988 230.43 20.53 230.43 20.53L195.05 75.73C247.57 133.84 306.18 236.09 306.18 289.74C306.18 392.53 253.07 445.13 154.71 445.13C56.35 445.13 0.110107 395.97 0.110107 293.18C0.110107 239.58 63 133.98 115.53 75.85L115.51 75.86Z" fill="white"/>
<path fill-rule="evenodd" clip-rule="evenodd" d="M208.06 1549.36C213.66 1549.36 218.21 1554.2 218.21 1560.16C218.21 1566.12 213.66 1570.96 208.06 1570.96C202.46 1570.96 197.91 1566.12 197.91 1560.16C197.91 1554.2 202.46 1549.36 208.06 1549.36Z" fill="white"/>
<mask id="mask0_535_628" style="mask-type:luminance" maskUnits="userSpaceOnUse" x="0" y="0" width="307" height="446">
<path d="M115.51 75.86L74.75 22.64C106.06 6.10002 118.93 24.38 118.93 24.38C131.91 4.20001 143.21 2.43995 148.2 1.31995C150.07 0.899955 150.36 1.01998 151.35 0.969979C152.5 0.909979 154.05 0.88995 155.34 0.93995C160.89 1.12995 166.37 3.16003 171.24 5.65003C182.52 11.42 190.76 21.69 190.6 23.13C224.69 -0.809988 230.43 20.53 230.43 20.53L195.05 75.73C247.57 133.84 306.18 236.09 306.18 289.74C306.18 392.53 253.07 445.13 154.71 445.13C56.35 445.13 0.110107 395.97 0.110107 293.18C0.110107 239.58 63 133.98 115.53 75.85L115.51 75.86Z" fill="white"/>
</mask>
<g mask="url(#mask0_535_628)">
<path fill-rule="evenodd" clip-rule="evenodd" d="M231.51 64.8501H71.27V92.9801H231.51V64.8501Z" fill="#20B2BF"/>
<path d="M109.44 301.15L130.46 297.44C131.64 306.89 134.93 314.14 140.32 319.18C145.71 324.22 153.25 326.73 162.94 326.73C172.63 326.73 179.95 324.5 184.67 320.04C189.39 315.58 191.76 310.34 191.76 304.33C191.76 298.94 189.67 294.7 185.5 291.61C182.59 289.49 175.34 286.79 163.77 283.53C148.18 279.11 137.37 275.29 131.35 272.06C125.33 268.83 120.76 264.37 117.65 258.67C114.54 252.97 112.98 246.67 112.98 239.78C112.98 233.51 114.26 227.7 116.82 222.35C119.38 217 122.86 212.56 127.27 209.03C130.58 206.29 135.08 203.97 140.79 202.07C146.5 200.17 152.62 199.22 159.15 199.22C168.99 199.22 177.63 200.81 185.07 203.99C192.51 207.17 198 211.48 201.54 216.91C205.08 222.34 207.52 229.61 208.86 238.71L188.07 241.89C187.12 234.64 184.39 228.99 179.86 224.92C175.33 220.85 168.94 218.82 160.67 218.82C150.91 218.82 143.94 220.63 139.77 224.25C135.6 227.87 133.51 232.11 133.51 236.97C133.51 240.06 134.38 242.85 136.11 245.32C137.84 247.88 140.56 250 144.26 251.68C146.39 252.56 152.65 254.6 163.04 257.78C178.08 262.29 188.57 265.98 194.51 268.85C200.45 271.72 205.12 275.9 208.5 281.37C211.89 286.85 213.58 293.65 213.58 301.78C213.58 309.91 211.51 317.22 207.38 324.25C203.25 331.27 197.28 336.71 189.49 340.55C181.7 344.39 172.88 346.32 163.04 346.32C146.74 346.32 134.32 342.52 125.78 334.92C117.24 327.32 111.78 316.06 109.42 301.12L109.44 301.15Z" fill="#20B2BF"/>
<path fill-rule="evenodd" clip-rule="evenodd" d="M173.6 337.89H154.57V369.27H173.6V337.89Z" fill="#20B2BF"/>
<path fill-rule="evenodd" clip-rule="evenodd" d="M173.42 180.01H154.39V211.39H173.42V180.01Z" fill="#20B2BF"/>
</g>
</svg>
