<svg width="382" height="376" viewBox="0 0 382 376" fill="none" xmlns="http://www.w3.org/2000/svg">
<path fill-rule="evenodd" clip-rule="evenodd" d="M21.65 282.06C8.84002 245.28 0.77002 211.65 0.77002 185.26C0.77002 83.44 86.17 0.77002 191.37 0.77002C296.57 0.77002 381.97 83.44 381.97 185.26C381.97 217.48 369.95 260.48 351.94 306.82H351.6C341.37 333.6 327.19 363.24 318.86 372.2C309.42 382.37 280.09 367.99 280.89 353.58C282.07 332.47 312.08 260.46 325.92 245.56C330.65 240.46 340.39 241.53 348.81 245.69C349.53 238.74 349.9 232.13 349.9 225.92C349.9 124.1 277.9 41.4299 189.21 41.4299C100.52 41.4299 28.52 124.1 28.52 225.92C28.52 232.64 28.96 239.82 29.8 247.41C38.81 241.91 50.4899 239.82 55.8199 245.56C69.6499 260.46 99.67 332.47 100.85 353.58C101.65 367.99 72.32 382.37 62.88 372.2C51.81 360.28 30.37 311.77 21.65 282.06Z" fill="white"/>
</svg>
