<svg width="455" height="439" viewBox="0 0 455 439" fill="none" xmlns="http://www.w3.org/2000/svg">
<path fill-rule="evenodd" clip-rule="evenodd" d="M249.52 1.38004C234.93 0.0100391 220.24 0.0100391 205.65 1.38004L198.43 35.33C184.45 37.39 170.74 40.9401 157.56 45.9001L133.71 19.99C120.37 25.85 107.64 32.9401 95.7199 41.1601L107.05 74.0501C96.0099 82.5901 85.9799 92.2701 77.1299 102.92L43.0599 91.98C34.5399 103.49 27.1899 115.77 21.1199 128.65L47.9699 151.66C42.8299 164.38 39.1599 177.61 37.0199 191.1L1.84991 198.07C0.429912 212.15 0.429912 226.33 1.84991 240.41L37.0199 247.38C39.1599 260.88 42.8299 274.1 47.9699 286.82L21.1199 309.83C27.1899 322.71 34.5299 334.99 43.0599 346.5L77.1299 335.56C85.9799 346.22 96.0099 355.9 107.05 364.43L95.7199 397.32C107.65 405.55 120.37 412.63 133.71 418.49L157.56 392.58C170.74 397.54 184.45 401.08 198.43 403.15L205.65 437.1C220.24 438.47 234.93 438.47 249.52 437.1L256.75 403.15C270.73 401.09 284.44 397.54 297.62 392.58L321.47 418.49C334.81 412.64 347.54 405.55 359.46 397.32L348.13 364.43C359.17 355.89 369.2 346.21 378.05 335.56L412.12 346.5C420.64 334.99 427.99 322.71 434.06 309.83L407.21 286.82C412.35 274.1 416.02 260.87 418.16 247.38L453.34 240.41C454.76 226.33 454.76 212.15 453.34 198.07L418.16 191.1C416.02 177.6 412.35 164.38 407.21 151.66L434.06 128.65C427.99 115.77 420.65 103.49 412.12 91.98L378.05 102.92C369.21 92.2701 359.17 82.5801 348.13 74.0501L359.46 41.1601C347.53 32.9301 334.81 25.85 321.47 19.99L297.62 45.9001C284.44 40.9401 270.74 37.4 256.75 35.33L249.52 1.38004ZM227.59 175.47C252.63 175.47 272.95 195.09 272.95 219.25C272.95 243.41 252.62 263.03 227.59 263.03C202.56 263.03 182.23 243.41 182.23 219.25C182.23 195.09 202.56 175.47 227.59 175.47Z" fill="white"/>
</svg>
